<?xml version="1.0" encoding="UTF-8" standalone="no"?>
<svg
   xmlns:dc="http://purl.org/dc/elements/1.1/"
   xmlns:cc="http://creativecommons.org/ns#"
   xmlns:rdf="http://www.w3.org/1999/02/22-rdf-syntax-ns#"
   xmlns:svg="http://www.w3.org/2000/svg"
   xmlns="http://www.w3.org/2000/svg"
   xmlns:sodipodi="http://sodipodi.sourceforge.net/DTD/sodipodi-0.dtd"
   xmlns:inkscape="http://www.inkscape.org/namespaces/inkscape"
   version="1.1"
   id="svg2"
   xml:space="preserve"
   viewBox="0 0 629.92133 116.6068"
   sodipodi:docname="CodeLabs_Logo2.ai"><metadata
     id="metadata8"><rdf:RDF><cc:Work
         rdf:about=""><dc:format>image/svg+xml</dc:format><dc:type
           rdf:resource="http://purl.org/dc/dcmitype/StillImage" /></cc:Work></rdf:RDF></metadata><defs
     id="defs6"><clipPath
       clipPathUnits="userSpaceOnUse"
       id="clipPath18"><path
         d="M 0,87.455 H 472.441 V 0 H 0 Z"
         id="path16" /></clipPath></defs><sodipodi:namedview
     pagecolor="#ffffff"
     bordercolor="#666666"
     borderopacity="1"
     objecttolerance="10"
     gridtolerance="10"
     guidetolerance="10"
     inkscape:pageopacity="0"
     inkscape:pageshadow="2"
     inkscape:window-width="640"
     inkscape:window-height="480"
     id="namedview4" /><g
     id="g10"
     inkscape:groupmode="layer"
     inkscape:label="CodeLabs_Logo2"
     transform="matrix(1.3333333,0,0,-1.3333333,0,116.6068)"><g
       id="g12"><g
         id="g14"
         clip-path="url(#clipPath18)"><g
           id="g20"
           transform="translate(72.2349,32.2657)"><path
             d="m 0,0 c 0,-5.125 1.456,-9.3 4.368,-12.521 2.912,-3.224 6.64,-4.834 11.182,-4.834 4.543,0 8.271,1.61 11.183,4.834 2.912,3.221 4.368,7.396 4.368,12.521 0,5.125 -1.456,9.319 -4.368,12.581 -2.912,3.261 -6.64,4.892 -11.183,4.892 -4.542,0 -8.27,-1.631 -11.182,-4.892 C 1.456,9.319 0,5.125 0,0 m 48.69,0 c 0,-9.085 -3.145,-16.735 -9.435,-22.947 -6.29,-6.213 -14.193,-9.319 -23.705,-9.319 -9.513,0 -17.414,3.106 -23.704,9.319 -6.29,6.212 -9.435,13.862 -9.435,22.947 0,9.086 3.145,16.754 9.435,23.006 6.29,6.25 14.191,9.377 23.704,9.377 9.512,0 17.415,-3.127 23.705,-9.377 C 45.545,16.754 48.69,9.086 48.69,0"
             style="fill:#ffffff;fill-opacity:1;fill-rule:nonzero;stroke:none"
             id="path22" /></g><g
           id="g24"
           transform="translate(144.8731,32.1495)"><path
             d="m 0,0 c 0,-5.049 1.514,-9.184 4.542,-12.405 3.029,-3.224 6.562,-4.834 10.601,-4.834 4.037,0 7.473,1.61 10.309,4.834 2.834,3.221 4.251,7.377 4.251,12.463 0,5.086 -1.417,9.319 -4.251,12.697 -2.836,3.378 -6.31,5.067 -10.426,5.067 -4.117,0 -7.65,-1.709 -10.6,-5.125 C 1.474,9.279 0,5.047 0,0 m 10.825,-32.089 c -7.442,0 -14.083,3.147 -19.928,9.44 -5.843,6.292 -8.765,14.099 -8.765,23.421 0,9.322 2.843,16.954 8.532,22.897 5.687,5.943 12.349,8.914 19.986,8.914 7.635,0 13.868,-2.68 18.7,-8.04 V 55.306 H 46.881 V -31.156 H 29.35 v 8.273 c -4.909,-6.138 -11.085,-9.206 -18.525,-9.206"
             style="fill:#ffffff;fill-opacity:1;fill-rule:nonzero;stroke:none"
             id="path26" /></g><g
           id="g28"
           transform="translate(239.2154,47.2657)"><path
             d="m 0,0 c -2.408,2.019 -5.34,3.029 -8.795,3.029 -3.456,0 -6.621,-1.049 -9.493,-3.145 -2.874,-2.097 -4.543,-4.933 -5.009,-8.504 H 4.193 C 3.804,-4.892 2.406,-2.02 0,0 m 16.743,-37.245 c -7.067,-6.68 -15.357,-10.018 -24.869,-10.018 -9.514,0 -17.376,2.931 -23.588,8.794 -6.214,5.863 -9.318,13.726 -9.318,23.588 0,9.861 3.163,17.706 9.493,23.53 6.328,5.825 13.803,8.737 22.423,8.737 8.62,0 15.938,-2.603 21.957,-7.805 6.017,-5.203 9.027,-12.347 9.027,-21.433 v -9.319 h -45.661 c 0.542,-3.418 2.329,-6.213 5.358,-8.387 3.029,-2.174 6.445,-3.261 10.25,-3.261 6.134,0 11.183,2.056 15.144,6.173 z"
             style="fill:#ffffff;fill-opacity:1;fill-rule:nonzero;stroke:none"
             id="path30" /></g><path
           d="M 284.99,0.993 H 267.459 V 87.455 H 284.99 Z"
           style="fill:#ffffff;fill-opacity:1;fill-rule:nonzero;stroke:none"
           id="path32" /><g
           id="g34"
           transform="translate(330.2134,24.8595)"><path
             d="m 0,0 v 3.028 h -10.95 c -6.988,0 -10.484,-2.174 -10.484,-6.522 0,-2.253 0.834,-3.981 2.505,-5.184 1.669,-1.205 4.057,-1.805 7.163,-1.805 3.106,0 5.843,0.95 8.213,2.853 C -1.186,-5.728 0,-3.185 0,0 M 17.73,-23.866 H 1.195 v 7.586 c -4.513,-5.681 -10.094,-8.52 -16.747,-8.52 -6.652,0 -12.235,1.926 -16.747,5.778 -4.513,3.85 -6.768,8.985 -6.768,15.404 0,6.419 2.334,11.222 7.002,14.412 4.668,3.19 11.046,4.786 19.139,4.786 H 0.199 v 0.35 c 0,6.69 -3.547,10.036 -10.636,10.036 -3.039,0 -6.252,-0.604 -9.642,-1.809 -3.39,-1.207 -6.253,-2.704 -8.59,-4.493 l -7.831,11.32 c 8.258,5.99 17.687,8.986 28.284,8.986 7.635,0 13.868,-1.907 18.7,-5.718 4.83,-3.813 7.246,-9.843 7.246,-18.089 z"
             style="fill:#ffffff;fill-opacity:1;fill-rule:nonzero;stroke:none"
             id="path36" /></g><g
           id="g38"
           transform="translate(371.4595,32.2076)"><path
             d="m 0,0 c 0,-5.086 1.415,-9.242 4.251,-12.463 2.834,-3.224 6.27,-4.834 10.309,-4.834 4.037,0 7.572,1.61 10.6,4.834 3.028,3.221 4.543,7.356 4.543,12.405 0,5.047 -1.476,9.279 -4.427,12.697 -2.952,3.416 -6.484,5.125 -10.599,5.125 -4.117,0 -7.592,-1.689 -10.426,-5.067 C 1.415,9.319 0,5.085 0,0 m 18.892,32.525 c 7.635,0 14.296,-2.971 19.985,-8.914 5.686,-5.943 8.532,-13.575 8.532,-22.897 0,-9.322 -2.922,-17.13 -8.765,-23.422 C 32.8,-29 26.156,-32.147 18.716,-32.147 c -7.442,0 -13.615,3.068 -18.525,9.206 v -8.273 H -17.34 V 55.248 H 0.191 V 24.485 c 4.83,5.36 11.064,8.04 18.701,8.04"
             style="fill:#ffffff;fill-opacity:1;fill-rule:nonzero;stroke:none"
             id="path40" /></g><g
           id="g42"
           transform="translate(472.4419,20.4425)"><path
             d="m 0,0 c 0,-6.173 -2.271,-11.124 -6.814,-14.852 -4.543,-3.727 -10.31,-5.59 -17.298,-5.59 -4.659,0 -9.514,0.835 -14.561,2.504 -5.049,1.669 -9.592,4.135 -13.629,7.397 l 7.689,10.949 c 6.522,-5.049 13.471,-7.571 20.85,-7.571 2.251,0 4.036,0.445 5.359,1.34 1.319,0.891 1.979,2.076 1.979,3.552 0,1.474 -0.913,2.833 -2.737,4.077 -1.825,1.241 -4.466,2.406 -7.921,3.495 -3.456,1.086 -6.097,2.018 -7.921,2.796 -1.825,0.774 -3.902,1.901 -6.231,3.377 -4.738,2.95 -7.106,7.318 -7.106,13.105 0,5.784 2.329,10.502 6.988,14.152 4.661,3.649 10.677,5.475 18.056,5.475 7.377,0 14.753,-2.486 22.132,-7.455 L -7.688,25.103 c -5.437,3.727 -10.853,5.591 -16.249,5.591 -5.399,0 -8.096,-1.476 -8.096,-4.426 0,-1.631 0.853,-2.913 2.562,-3.845 1.707,-0.931 4.543,-2.02 8.503,-3.261 3.961,-1.243 6.775,-2.195 8.446,-2.854 1.668,-0.661 3.668,-1.689 5.999,-3.087 C -2.176,10.58 0,6.174 0,0"
             style="fill:#ffffff;fill-opacity:1;fill-rule:nonzero;stroke:none"
             id="path44" /></g><g
           id="g46"
           transform="translate(47.9976,22.6027)"><path
             d="m 0,0 c -4.305,-4.736 -9.082,-7.11 -14.334,-7.11 -4.426,0 -8.29,1.474 -11.59,4.426 -3.302,2.951 -4.951,7.085 -4.951,12.406 0,5.318 1.649,9.473 4.951,12.464 3.3,2.988 7.24,4.484 11.823,4.484 2.872,0 5.766,-0.661 8.678,-1.981 2.195,-0.995 4.12,-2.32 5.808,-3.933 1.412,4.908 3.825,9.364 7.232,13.373 -2.645,2.127 -5.553,3.839 -8.73,5.121 -4.621,1.864 -9.184,2.796 -13.687,2.796 -9.009,0 -16.793,-3.01 -23.355,-9.027 -6.563,-6.019 -9.843,-13.824 -9.843,-23.414 0,-9.591 3.242,-17.356 9.727,-23.296 6.483,-5.941 14.424,-8.912 23.821,-8.912 7.649,0 14.861,2.785 21.637,8.344 C 3.683,-10.013 1.286,-5.261 0,0"
             style="fill:#ffffff;fill-opacity:1;fill-rule:nonzero;stroke:none"
             id="path48" /></g></g></g></g></svg>
