<svg viewBox="0 0 16 16" fill="none" xmlns="http://www.w3.org/2000/svg">
<path d="M15.1875 0.1875H0.8125C0.466797 0.1875 0.1875 0.466797 0.1875 0.8125V15.1875C0.1875 15.5332 0.466797 15.8125 0.8125 15.8125H15.1875C15.5332 15.8125 15.8125 15.5332 15.8125 15.1875V0.8125C15.8125 0.466797 15.5332 0.1875 15.1875 0.1875ZM14.5625 14.5625H10.9668V9.76172H12.998L13.3027 7.4043H10.9668V5.89844C10.9668 5.21484 11.1562 4.75 12.1348 4.75H13.3828V2.64062C13.166 2.61133 12.4258 2.54688 11.5625 2.54688C9.76172 2.54688 8.5293 3.64648 8.5293 5.66406V7.40234H6.49414V9.75977H8.53125V14.5625H1.4375V1.4375H14.5625V14.5625Z" fill="#202020"/>
</svg>
