<svg viewBox="0 0 16 16" fill="none" xmlns="http://www.w3.org/2000/svg">
<path d="M8.00009 3.99413C5.7833 3.99413 3.99423 5.78319 3.99423 7.99999C3.99423 10.2168 5.7833 12.0058 8.00009 12.0058C10.2169 12.0058 12.006 10.2168 12.006 7.99999C12.006 5.78319 10.2169 3.99413 8.00009 3.99413ZM8.00009 10.6035C6.5665 10.6035 5.39658 9.43358 5.39658 7.99999C5.39658 6.5664 6.5665 5.39647 8.00009 5.39647C9.43369 5.39647 10.6036 6.5664 10.6036 7.99999C10.6036 9.43358 9.43369 10.6035 8.00009 10.6035ZM12.17 2.89647C11.6524 2.89647 11.2345 3.31444 11.2345 3.83202C11.2345 4.3496 11.6524 4.76757 12.17 4.76757C12.6876 4.76757 13.1056 4.35155 13.1056 3.83202C13.1057 3.70912 13.0816 3.5874 13.0347 3.47382C12.9877 3.36024 12.9188 3.25705 12.8319 3.17015C12.745 3.08324 12.6418 3.01434 12.5282 2.96737C12.4146 2.92041 12.2929 2.89632 12.17 2.89647ZM15.8087 7.99999C15.8087 6.92186 15.8185 5.85351 15.7579 4.77733C15.6974 3.52733 15.4122 2.41796 14.4981 1.5039C13.5821 0.58788 12.4747 0.304677 11.2247 0.24413C10.1466 0.183583 9.07822 0.193349 8.00205 0.193349C6.92392 0.193349 5.85556 0.183583 4.77939 0.24413C3.52939 0.304677 2.42001 0.589833 1.50595 1.5039C0.589936 2.41991 0.306733 3.52733 0.246186 4.77733C0.18564 5.85546 0.195405 6.92382 0.195405 7.99999C0.195405 9.07616 0.18564 10.1465 0.246186 11.2226C0.306733 12.4726 0.59189 13.582 1.50595 14.4961C2.42197 15.4121 3.52939 15.6953 4.77939 15.7558C5.85752 15.8164 6.92587 15.8066 8.00205 15.8066C9.08017 15.8066 10.1485 15.8164 11.2247 15.7558C12.4747 15.6953 13.5841 15.4101 14.4981 14.4961C15.4142 13.5801 15.6974 12.4726 15.7579 11.2226C15.8204 10.1465 15.8087 9.07811 15.8087 7.99999ZM14.0899 12.6055C13.9474 12.9609 13.7755 13.2266 13.5001 13.5C13.2247 13.7754 12.961 13.9473 12.6056 14.0898C11.5782 14.498 9.13877 14.4062 8.00009 14.4062C6.86142 14.4062 4.42001 14.498 3.39267 14.0918C3.0372 13.9492 2.77158 13.7773 2.49814 13.5019C2.22275 13.2266 2.05087 12.9629 1.9083 12.6074C1.50205 11.5781 1.59384 9.13866 1.59384 7.99999C1.59384 6.86132 1.50205 4.41991 1.9083 3.39257C2.05087 3.0371 2.22275 2.77147 2.49814 2.49804C2.77353 2.2246 3.0372 2.05077 3.39267 1.90819C4.42001 1.50194 6.86142 1.59374 8.00009 1.59374C9.13877 1.59374 11.5802 1.50194 12.6075 1.90819C12.963 2.05077 13.2286 2.22265 13.502 2.49804C13.7774 2.77343 13.9493 3.0371 14.0919 3.39257C14.4981 4.41991 14.4063 6.86132 14.4063 7.99999C14.4063 9.13866 14.4981 11.5781 14.0899 12.6055Z" fill="#202020"/>
</svg>
