<svg viewBox="0 0 16 16" fill="none" xmlns="http://www.w3.org/2000/svg">
<path d="M14.5566 0.1875H1.44336C0.75 0.1875 0.1875 0.75 0.1875 1.44336V14.5566C0.1875 15.25 0.75 15.8125 1.44336 15.8125H14.5566C15.25 15.8125 15.8125 15.25 15.8125 14.5566V1.44336C15.8125 0.75 15.25 0.1875 14.5566 0.1875ZM14.5566 14.5625C5.81055 14.5605 1.4375 14.5586 1.4375 14.5566C1.43945 5.81055 1.44141 1.4375 1.44336 1.4375C10.1895 1.43945 14.5625 1.44141 14.5625 1.44336C14.5605 10.1895 14.5586 14.5625 14.5566 14.5625ZM2.50391 6.04492H4.82227V13.502H2.50391V6.04492ZM3.66406 5.02539C4.4043 5.02539 5.00781 4.42383 5.00781 3.68164C5.00781 3.50518 4.97306 3.33044 4.90553 3.16741C4.838 3.00438 4.73902 2.85624 4.61424 2.73147C4.48946 2.60669 4.34132 2.50771 4.17829 2.44018C4.01526 2.37265 3.84053 2.33789 3.66406 2.33789C3.4876 2.33789 3.31286 2.37265 3.14983 2.44018C2.9868 2.50771 2.83867 2.60669 2.71389 2.73147C2.58911 2.85624 2.49013 3.00438 2.4226 3.16741C2.35507 3.33044 2.32031 3.50518 2.32031 3.68164C2.31836 4.42383 2.91992 5.02539 3.66406 5.02539ZM8.5918 9.8125C8.5918 8.83984 8.77734 7.89844 9.98242 7.89844C11.1699 7.89844 11.1875 9.00977 11.1875 9.875V13.502H13.5039V9.41211C13.5039 7.4043 13.0703 5.85938 10.7246 5.85938C9.59766 5.85938 8.8418 6.47852 8.53125 7.06445H8.5V6.04492H6.27539V13.502H8.5918V9.8125Z" fill="#202020"/>
</svg>
