<svg width="100" height="24" viewBox="0 0 100 24" fill-opacity="0.4" 
stroke-opacity="0.4" xmlns="http://www.w3.org/2000/svg">
<path id="Vector" d="M29.4649 0H34.3069V24.2155H29.4654V0H29.4649ZM19.7781 19.3726L0.405518 19.3717V24.2155H24.6206V0H0.405518V4.84292H19.7781V19.3726ZM43.9932 4.84292H63.3667V0H39.1503V24.2155H63.3667V19.3717L43.9932 19.3726V4.84292ZM92.4234 0H68.2092V4.842H92.4234V0ZM92.4234 9.68677H68.2092V14.5292H92.4234V9.68677ZM92.4234 19.3726H68.2092V24.2155H92.4234V19.3731V19.3726ZM94.8464 0H96.8024V0.362769H96.0349V2.42169H95.6103V0.363231H94.8469V0H94.8464ZM97.0775 0H97.6738L98.3403 1.89462H98.35L98.9994 0H99.5864V2.42169H99.1867V0.550615H99.1775L98.5055 2.42169H98.1603L97.4878 0.550615H97.4804V2.42169H97.078V0" fill="#565656"/>
</svg>
