<svg width="38" height="24" viewBox="0 0 38 24" fill-opacity="0.4" 
stroke-opacity="0.4"  xmlns="http://www.w3.org/2000/svg">
<path id="Vector" d="M16.9244 0.233382C16.5662 0.364188 16.0543 0.534804 15.787 0.614425C15.0022 0.841913 15.0534 0.773666 14.1775 2.82675C13.4211 4.59547 12.2609 7.41632 11.7263 8.79262L11.4534 9.48646L10.9074 9.58315C10.2249 9.70258 8.04103 10.1405 7.54056 10.2542C7.33582 10.3054 7.16521 10.3339 7.15383 10.3282C7.14814 10.3168 7.19364 10.186 7.25051 10.0324C10.9927 0.654235 10.8903 0.927221 10.7197 0.546178C10.5832 0.244756 10.0998 0.210633 9.70739 0.472244C9.42303 0.659922 9.22397 0.967031 8.92255 1.68931C8.67231 2.28646 6.47137 7.79168 5.68653 9.77651L5.29411 10.7661L4.55478 10.9594C2.83156 11.4031 1.29601 11.8467 1.08558 11.9604C0.892219 12.0685 0.858095 12.1196 0.841034 12.3016C0.812598 12.6656 1.01165 12.9386 1.48369 13.1661C1.81355 13.3196 1.9671 13.4448 2.37658 13.894C2.87705 14.4343 3.30359 14.7301 3.58795 14.7301C3.6562 14.7301 3.72445 14.7414 3.74151 14.7585C3.75857 14.7756 3.63345 15.168 3.46283 15.6286C2.99648 16.8741 1.82492 20.15 1.478 21.1737C1.06283 22.3907 1.07421 22.8514 1.51212 23.0334C1.85336 23.1756 2.37658 22.8798 2.62113 22.4135C2.66663 22.3225 3.00217 21.4182 3.36615 20.4059C4.03724 18.5291 5.49317 14.6049 5.52729 14.5651C5.5671 14.5196 9.8325 13.5926 9.86094 13.6211C9.87231 13.6324 9.61639 14.4059 9.28653 15.3386C8.19459 18.4495 7.2562 21.458 7.2562 21.8732C7.2562 21.9813 7.28464 22.1291 7.31876 22.1974C7.35288 22.2656 7.76805 22.6978 8.2344 23.1585L9.08748 24.0002H9.36615C9.58795 24.0002 9.6562 23.9775 9.72445 23.8694C9.76994 23.8012 10.1794 22.6694 10.6287 21.3557C11.5102 18.7907 12.2894 16.6068 13.1709 14.2467L13.7169 12.7737L14.2401 12.5917C15.0477 12.313 15.4003 12.0514 15.8723 11.3746C16.2363 10.8514 16.5718 10.4874 16.896 10.2599C17.3908 9.92438 17.5728 9.40115 17.3169 9.08267C17.1292 8.83812 16.8335 8.79262 15.9974 8.87224C15.5936 8.90637 15.2524 8.92912 15.241 8.91206C15.224 8.89499 15.7984 7.37651 16.515 5.53954C18.3519 0.841913 18.3008 0.984093 18.3292 0.591676C18.3576 0.290254 18.3462 0.227695 18.2382 0.119638C18.0505 -0.06804 17.6865 -0.039604 16.9244 0.233382ZM35.7491 0.233382C35.4818 0.330064 35.0154 0.494993 34.7026 0.60305C34.3955 0.711107 34.0714 0.836225 33.9861 0.881723C33.5936 1.08646 33.332 1.53575 32.1093 4.09499C30.1699 8.15566 28.9188 10.9936 27.5709 14.3661L26.9055 16.0324L26.8884 15.623C26.8372 14.4855 27.0818 12.0116 27.6733 7.82011C28.2022 4.03243 28.3728 2.45708 28.3785 1.31964C28.3842 0.517742 28.3842 0.50068 28.242 0.386936C28.1169 0.290254 28.0429 0.273192 27.6733 0.295941C27.3207 0.31869 27.1216 0.375562 26.5643 0.608737C26.1889 0.767979 25.7055 0.955657 25.4951 1.0239C25.0571 1.16608 24.6875 1.42201 24.5282 1.68931C24.005 2.58788 20.4505 13.5585 18.8297 19.2798C18.1301 21.7481 18.0448 22.1007 18.0733 22.4192C18.1529 23.2097 19.023 23.2552 19.4382 22.4874C19.5178 22.3339 19.859 21.276 20.1946 20.1329C21.4344 15.9016 23.2259 10.1291 23.9425 8.0476L24.2553 7.13765L24.2268 7.59262C24.1813 8.25803 24.0505 9.75376 23.8628 11.6874C23.5045 15.3841 23.4135 17.1358 23.5159 18.4381C23.5557 18.8988 23.624 19.4049 23.6695 19.5642C23.7548 19.8542 24.0221 20.2239 24.6022 20.8495C24.7728 21.0372 24.9946 21.3102 25.0856 21.4523C25.3813 21.9187 25.7453 22.0267 26.024 21.7253C26.1263 21.6116 26.3083 21.2078 26.5643 20.5196C27.0477 19.2173 28.5718 15.4012 29.2884 13.7007C30.4316 10.9936 32.5472 6.27888 32.5984 6.33006C32.6098 6.34144 32.5472 6.70542 32.4562 7.14333C31.7112 10.6353 30.0676 19.5983 29.8287 21.458C29.7377 22.1746 29.7718 22.2429 30.4998 22.8059C30.7955 23.0391 31.1595 23.3689 31.296 23.5452C31.6145 23.9376 31.7226 23.9945 32.0922 24.0002C32.3425 24.0002 32.405 23.9775 32.4733 23.8694C32.5188 23.8012 32.6894 23.0675 32.8486 22.2372C34.2306 15.077 36.1813 5.53954 36.9434 2.20684C37.2619 0.830538 37.2903 0.438121 37.1083 0.204946C37.006 0.0741401 36.9548 0.0570785 36.6135 0.0570785C36.3292 0.0570785 36.1074 0.102576 35.7491 0.233382Z" fill="#565656"/>
</svg>
