<svg 
fill-opacity="0.4" 
stroke-opacity="0.4" 
width="48" height="24" viewBox="0 0 48 24" xmlns="http://www.w3.org/2000/svg">
<path id="Vector" d="M34.395 0.25125C34.3125 0.39375 32.4113 3.72 30.1688 7.65C27.9263 11.58 26.01 14.9138 25.9125 15.06C24.765 16.755 23.2688 17.7638 21.4313 18.075C21.0075 18.1462 20.8538 18.1575 20.2313 18.1388C19.4363 18.1163 19.0463 18.0525 18.375 17.8275C15.1725 16.7588 13.4213 13.3125 14.505 10.2C15.2137 8.1525 16.9425 6.66 19.1475 6.18375C19.7325 6.05625 20.79 6.04125 21.4313 6.15C22.0575 6.255 22.62 6.435 23.2238 6.72C23.4862 6.8475 23.7075 6.94125 23.715 6.93375C23.8163 6.81375 26.5875 1.8675 26.5688 1.8375C26.5275 1.77 25.5488 1.2975 24.9938 1.07625C23.3513 0.42375 21.615 0.1425 19.7625 0.22875C15.7388 0.41625 12.0675 2.55 9.94125 5.9325C9.09 7.29 8.5425 8.775 8.27625 10.4625C8.20875 10.8975 8.1975 11.13 8.1975 12.1125C8.1975 13.095 8.20875 13.3275 8.27625 13.7625C8.685 16.3463 9.80625 18.5775 11.6063 20.3813C13.515 22.2938 15.8475 23.4638 18.6188 23.895C19.245 23.9925 20.85 24.03 21.555 23.9662C25.1663 23.6287 28.3875 21.8063 30.4763 18.9188C31.0575 18.1125 31.1888 17.8913 33.0675 14.6175L34.5638 12.0038L35.9287 14.4113L37.2975 16.8188L36.3 16.83L35.3063 16.8413L34.1175 18.93L32.9325 21.0188L36.3188 21.0375L39.7088 21.0563L40.4363 22.3125L41.1637 23.5688L44.5838 23.58C47.6888 23.5875 48.0075 23.5838 47.985 23.5275C47.9363 23.4 34.5938 0 34.5675 0C34.5525 0 34.4738 0.1125 34.395 0.25125ZM0 12.1125V23.5875H6V0.6375H0V12.1125Z" fill="#565656"/>
</svg>
