<svg width="112" height="24" viewBox="0 0 112 24" fill-opacity="0.4" 
stroke-opacity="0.4"  xmlns="http://www.w3.org/2000/svg">
<g id="svg6" clip-path="url(#clip0)">
<path id="Vector" d="M11.1084 7.59616C11.1084 13.5075 11.0921 15.0801 11.0316 15.1192C10.9891 15.1469 10.2067 15.1842 9.29289 15.2027L7.63135 15.2363L9.38519 15.2488L11.139 15.2614L11.1217 19.5386L11.1043 23.8154H14.5544L14.5618 19.646C14.5655 17.3531 14.5814 15.5254 14.5969 15.5845C14.6124 15.6439 14.6489 15.6923 14.6781 15.6923C14.7069 15.6923 14.7475 15.7451 14.7682 15.8097C14.7885 15.8743 14.9421 16.0752 15.109 16.2557C15.2763 16.4366 15.4136 16.6054 15.4144 16.6309C15.4155 16.656 15.4542 16.677 15.5011 16.677C15.548 16.677 15.6027 16.7254 15.6226 16.7845C15.6743 16.9392 15.795 17.1171 15.9545 17.2737C16.0306 17.3483 16.093 17.4384 16.093 17.4738C16.093 17.5093 16.1285 17.5384 16.172 17.5384C16.2156 17.5384 16.3038 17.6278 16.3681 17.7367C16.4327 17.8456 16.5494 17.9944 16.6277 18.0668C16.7059 18.1392 16.7698 18.2186 16.7698 18.2426C16.7698 18.3061 17.3037 18.8307 17.368 18.8307C17.3979 18.8307 17.4577 18.9293 17.5016 19.0501C17.5452 19.1708 17.6198 19.2845 17.6678 19.303C17.7154 19.3211 17.7545 19.3746 17.7545 19.4219C17.7545 19.4691 17.7959 19.5075 17.8469 19.5075C17.8978 19.5075 17.9392 19.5363 17.9392 19.5714C17.9392 19.6069 18.0499 19.7509 18.1854 19.8915C18.3206 20.0326 18.4313 20.1976 18.4313 20.2586C18.4313 20.3195 18.4613 20.3693 18.4974 20.3693C18.5827 20.3693 18.7393 20.5259 18.7393 20.6108C18.7393 20.6474 18.767 20.6769 18.8006 20.6769C18.8818 20.6769 19.1085 20.9054 19.1085 20.987C19.1085 21.0664 19.1765 21.1491 19.5852 21.5667C19.7632 21.7484 19.9083 21.9201 19.9086 21.9485C19.9086 21.977 20.0194 22.1246 20.1545 22.2768C20.2897 22.4293 20.4005 22.5747 20.4005 22.5998C20.4008 22.6253 20.4422 22.646 20.4931 22.646C20.5437 22.646 20.5854 22.6877 20.5854 22.7383C20.5854 22.7893 20.6268 22.8306 20.6777 22.8306C20.7283 22.8306 20.7701 22.8742 20.7701 22.9274C20.7701 22.9805 20.8044 23.0606 20.8469 23.105C20.8893 23.1496 21.0448 23.3276 21.1928 23.5008L21.4616 23.8154H23.5773C26.039 23.8154 26.0165 23.8227 25.3699 23.2098C25.2769 23.1216 25.2008 23.0001 25.2008 22.9403C25.2008 22.8801 25.1735 22.8306 25.1403 22.8306C25.0631 22.8306 24.2161 21.9821 24.2161 21.9046C24.2161 21.8725 24.1747 21.8462 24.1238 21.8462C24.0728 21.8462 24.0315 21.8174 24.0315 21.782C24.0315 21.7126 23.9698 21.6317 23.7084 21.3566C23.6154 21.2588 23.5393 21.1488 23.5393 21.1122C23.5393 21.076 23.4976 21.0461 23.447 21.0461C23.396 21.0461 23.3613 21.0243 23.3698 20.9981C23.3894 20.9376 23.0021 20.5539 22.9216 20.5539C22.8891 20.5539 22.8621 20.5237 22.8621 20.4871C22.8621 20.4502 22.71 20.2689 22.5239 20.0843C22.3374 19.8997 22.1853 19.7283 22.1853 19.704C22.1853 19.6796 22.0055 19.4677 21.7854 19.2332C21.5654 18.9987 21.3852 18.7842 21.3852 18.7573C21.3852 18.7299 21.3438 18.7078 21.2929 18.7078C21.2423 18.7078 21.2006 18.6779 21.2006 18.6413C21.2006 18.5553 20.8609 18.2152 20.7745 18.2152C20.7571 18.2151 20.7404 18.2082 20.728 18.1959C20.7156 18.1836 20.7086 18.1669 20.7084 18.1495C20.7084 18.1133 20.6737 18.045 20.6316 17.9981C20.523 17.8749 20.4153 17.7508 20.3085 17.6259C20.0939 17.3828 19.8733 17.1451 19.6469 16.913C19.4183 16.6781 19.2315 16.4599 19.2315 16.4278C19.2315 16.3957 19.1901 16.3691 19.1392 16.3691C19.0882 16.3691 19.0469 16.3277 19.0469 16.2768C19.0469 16.2262 19.0192 16.1845 18.9852 16.1845C18.9516 16.1845 18.9239 16.1498 18.9239 16.1073C18.9239 16.0648 18.8279 15.95 18.7105 15.8522C18.5931 15.7543 18.5115 15.6506 18.5292 15.6218C18.5473 15.593 18.5185 15.5693 18.4661 15.5693C18.4133 15.5693 18.3767 15.5446 18.3852 15.5143C18.4568 15.2588 18.1854 15.2174 16.3563 15.2045C15.3837 15.1979 14.5799 15.1842 14.5703 15.1746C14.5607 15.165 14.5533 11.7744 14.5541 7.64009L14.5555 0.122925H11.1084V7.59616Z" fill="#565656"/>
<path id="Vector_2" d="M0.646896 7.81549C0.646896 7.99309 0.672373 8.0614 0.739203 8.0614C0.789788 8.0614 0.831511 8.09131 0.831511 8.12786C0.831511 8.16441 0.912372 8.27518 1.01133 8.37377C1.11028 8.47272 1.22105 8.55395 1.2576 8.55395C1.2751 8.55405 1.29186 8.56104 1.30423 8.57342C1.3166 8.58579 1.3236 8.60255 1.3237 8.62004C1.3237 8.6566 1.40456 8.76737 1.50351 8.86632C1.60246 8.96528 1.71323 9.04614 1.74979 9.04614C1.78634 9.04614 1.81588 9.08749 1.81588 9.13844C1.81588 9.18903 1.84357 9.23075 1.87754 9.23075C1.91151 9.23075 1.9392 9.27211 1.9392 9.32306C1.9392 9.37364 1.98056 9.41537 2.03151 9.41537C2.0821 9.41537 2.12382 9.44306 2.12382 9.47703C2.12382 9.51063 2.12419 9.55161 2.12493 9.56823C2.1264 9.61475 2.39705 9.88577 2.43139 9.87543C2.44837 9.86989 2.51077 9.91678 2.56985 9.97881C2.62893 10.0412 2.65883 10.0922 2.63557 10.0922C2.61268 10.0922 2.75114 10.241 2.94351 10.423C3.13551 10.6047 3.2928 10.7845 3.2928 10.8229C3.2928 10.8609 3.33453 10.8923 3.38511 10.8923C3.43606 10.8923 3.47742 10.9292 3.47742 10.9743C3.47742 11.0193 3.54683 11.0932 3.63139 11.1386C3.71594 11.1836 3.78536 11.2575 3.78536 11.3025C3.78536 11.3479 3.82671 11.3845 3.87766 11.3845C3.92825 11.3845 3.96997 11.4262 3.96997 11.4768C3.96997 11.5277 3.99951 11.5691 4.0357 11.5691C4.07188 11.5691 4.1413 11.6086 4.18967 11.657C4.23803 11.7053 4.27754 11.7748 4.27754 11.8109C4.27754 11.8471 4.3189 11.877 4.36985 11.877C4.39433 11.877 4.41781 11.8868 4.43512 11.9041C4.45243 11.9214 4.46216 11.9449 4.46216 11.9693C4.46216 12.0199 4.50351 12.0616 4.55446 12.0616C4.60505 12.0616 4.64677 12.0912 4.64677 12.1274C4.64677 12.2127 4.80333 12.3692 4.88862 12.3692C4.9248 12.3692 4.95434 12.4386 4.95434 12.5232C4.95434 12.6188 4.98942 12.6768 5.04665 12.6768C5.07113 12.6768 5.09461 12.6865 5.11192 12.7038C5.12923 12.7211 5.13896 12.7446 5.13896 12.7691C5.13896 12.82 5.18068 12.8614 5.23126 12.8614C5.28222 12.8614 5.32357 12.8872 5.32357 12.9183C5.32357 12.9496 5.40886 13.0604 5.51299 13.1645C5.61711 13.2687 5.72788 13.354 5.75926 13.354C5.79028 13.354 5.81613 13.3835 5.81613 13.4197C5.81613 13.4559 6.16025 13.8295 6.58117 14.2504C7.00173 14.671 7.37576 15.0155 7.41194 15.0155C7.44813 15.0155 7.47766 15.0498 7.47766 15.0923C7.4773 15.1691 10.6309 15.1813 10.9698 15.1056C11.2287 15.0476 11.133 14.8383 10.6161 14.3309C10.3451 14.0655 10.1236 13.8199 10.1236 13.7856C10.1236 13.7512 10.0822 13.7232 10.0313 13.7232C10.0068 13.7231 9.98339 13.7133 9.9661 13.696C9.94881 13.6787 9.93905 13.6553 9.93896 13.6309C9.93896 13.6064 9.92923 13.5829 9.91192 13.5656C9.89461 13.5483 9.87113 13.5386 9.84665 13.5386C9.78942 13.5386 9.75434 13.4802 9.75434 13.3846C9.75434 13.2975 9.71889 13.2306 9.67237 13.2306C9.62733 13.2306 9.55348 13.1616 9.50843 13.077C9.46302 12.9925 9.38917 12.9231 9.34413 12.9231C9.29908 12.9231 9.26216 12.8813 9.26216 12.8308C9.26216 12.8063 9.25243 12.7828 9.23512 12.7655C9.21781 12.7482 9.19433 12.7384 9.16985 12.7384C9.1189 12.7384 9.07754 12.7085 9.07754 12.6724C9.07754 12.586 8.73748 12.2463 8.65145 12.2463C8.6149 12.2463 8.58536 12.2045 8.58536 12.154C8.58536 12.103 8.55766 12.0616 8.52369 12.0616C8.48973 12.0616 8.46203 12.0199 8.46203 11.9693C8.46203 11.9449 8.45231 11.9214 8.435 11.9041C8.41769 11.8868 8.39421 11.877 8.36973 11.877C8.31914 11.877 8.27742 11.8493 8.27742 11.8154C8.27742 11.7814 8.23791 11.7537 8.18917 11.7537C8.13896 11.7537 8.0928 11.6813 8.08173 11.5846C8.07102 11.4916 8.03446 11.4184 8.00049 11.4221C7.9669 11.4255 7.89046 11.3771 7.83139 11.3143C7.77231 11.2516 7.73871 11.1999 7.7568 11.1999C7.77526 11.1999 7.67816 11.0902 7.54154 10.9562C7.40492 10.8221 7.29305 10.6837 7.29305 10.6486C7.29305 10.6135 7.25133 10.5847 7.20074 10.5847C7.17626 10.5847 7.15278 10.575 7.13547 10.5577C7.11816 10.5404 7.10843 10.5169 7.10843 10.4924C7.10843 10.4679 7.09871 10.4445 7.0814 10.4271C7.06409 10.4098 7.04061 10.4001 7.01613 10.4001C6.96517 10.4001 6.92382 10.3702 6.92382 10.334C6.92382 10.2487 6.76726 10.0922 6.68197 10.0922C6.64579 10.0922 6.61588 10.0508 6.61588 9.99986C6.61588 9.97538 6.60615 9.9519 6.58884 9.93459C6.57153 9.91728 6.54805 9.90755 6.52357 9.90755C6.46634 9.90755 6.43126 9.84958 6.43126 9.75395C6.43126 9.65795 6.39656 9.59998 6.33896 9.59998C6.28837 9.59998 6.24665 9.57451 6.24665 9.54312C6.24665 9.51174 6.10819 9.34595 5.93908 9.175C5.76997 9.00404 5.63151 8.83605 5.63151 8.80134C5.63181 8.78505 5.62564 8.7693 5.61437 8.75754C5.60309 8.74577 5.58762 8.73896 5.57133 8.73857C5.49342 8.73857 4.95434 8.19949 4.95434 8.12158C4.95434 8.08835 4.9248 8.0614 4.88862 8.0614C4.79816 8.0614 4.69071 7.94066 4.60136 7.73832L4.5264 7.56921H0.646896V7.81549ZM7.47766 15.3076C7.47766 15.35 7.43594 15.3847 7.38536 15.3847C7.36088 15.3847 7.3374 15.3944 7.32009 15.4118C7.30278 15.4291 7.29305 15.4525 7.29305 15.477C7.29305 15.5276 7.25133 15.5693 7.20074 15.5693C7.14979 15.5693 7.10843 15.5992 7.10843 15.6354C7.10843 15.672 6.99766 15.8116 6.86216 15.9456C6.72665 16.0796 6.61588 16.2299 6.61588 16.2794C6.61588 16.3288 6.57453 16.3691 6.52357 16.3691C6.49912 16.3692 6.4757 16.3789 6.45841 16.3962C6.44112 16.4135 6.43136 16.4369 6.43126 16.4614C6.43126 16.5124 6.40357 16.5537 6.36997 16.5537C6.336 16.5537 6.30831 16.5954 6.30831 16.646C6.30831 16.6705 6.29858 16.694 6.28127 16.7113C6.26396 16.7286 6.24048 16.7383 6.216 16.7383C6.16505 16.7383 6.1237 16.766 6.1237 16.8C6.1237 16.834 6.08197 16.8616 6.03139 16.8616C6.00691 16.8616 5.98343 16.8714 5.96612 16.8887C5.94881 16.906 5.93908 16.9295 5.93908 16.954C5.93908 17.0045 5.91139 17.0463 5.87742 17.0463C5.84382 17.0463 5.81613 17.0876 5.81613 17.1386C5.81613 17.1892 5.78622 17.2309 5.74966 17.2309C5.66363 17.2309 5.32357 17.5706 5.32357 17.657C5.32357 17.6932 5.28222 17.7231 5.23126 17.7231C5.20678 17.7231 5.1833 17.7328 5.16599 17.7501C5.14868 17.7674 5.13896 17.7909 5.13896 17.8154C5.13896 17.8398 5.12923 17.8633 5.11192 17.8806C5.09461 17.8979 5.07113 17.9077 5.04665 17.9077C4.98942 17.9077 4.95434 17.9656 4.95434 18.0616C4.95434 18.1462 4.9248 18.2152 4.88862 18.2152C4.85243 18.2152 4.78302 18.2548 4.73465 18.3031C4.68628 18.3515 4.64677 18.4209 4.64677 18.4571C4.64677 18.4933 4.60505 18.5232 4.55446 18.5232C4.52998 18.5232 4.5065 18.5329 4.48919 18.5502C4.47188 18.5675 4.46216 18.591 4.46216 18.6155C4.46216 18.6661 4.42043 18.7078 4.36985 18.7078C4.3189 18.7078 4.27754 18.7373 4.27754 18.7735C4.27754 18.8588 4.12099 19.0154 4.0357 19.0154C3.99951 19.0154 3.96997 19.0567 3.96997 19.1077C3.96997 19.1586 3.92825 19.2 3.87766 19.2C3.82671 19.2 3.78536 19.2288 3.78536 19.2639C3.78536 19.2993 3.67459 19.4333 3.53908 19.5622C3.40357 19.6911 3.2928 19.8295 3.2928 19.8701C3.2928 19.9111 3.22376 20.0086 3.1392 20.0869C3.05465 20.1652 2.98523 20.2608 2.98523 20.2992C2.98523 20.338 2.94351 20.3693 2.89293 20.3693C2.86844 20.3693 2.84497 20.3791 2.82765 20.3964C2.81034 20.4137 2.80062 20.4372 2.80062 20.4616C2.80062 20.5122 2.77108 20.554 2.73453 20.554C2.69834 20.554 2.6293 20.5935 2.58093 20.6418C2.53256 20.6902 2.49305 20.7592 2.49305 20.7954C2.49305 20.832 2.45133 20.8615 2.40074 20.8615C2.34979 20.8615 2.30843 20.9029 2.30843 20.9538C2.30843 21.0048 2.28111 21.0461 2.24751 21.0461C2.1696 21.0461 1.9392 21.2422 1.9392 21.3087C1.9392 21.3367 1.86979 21.4287 1.78523 21.5132C1.70068 21.5978 1.63126 21.7074 1.63126 21.7565C1.63088 21.7807 1.62094 21.8036 1.60364 21.8205C1.58634 21.8373 1.56308 21.8466 1.53896 21.8463C1.51448 21.8463 1.491 21.856 1.47369 21.8733C1.45637 21.8906 1.44665 21.9141 1.44665 21.9386C1.44665 21.9892 1.41896 22.0309 1.38536 22.0309C1.35139 22.0309 1.3237 22.0722 1.3237 22.1232C1.3237 22.1738 1.28197 22.2155 1.23139 22.2155C1.18043 22.2155 1.13908 22.2432 1.13908 22.2768C1.13908 22.3108 1.09736 22.3384 1.04677 22.3384C0.995819 22.3384 0.954465 22.3798 0.954465 22.4308C0.954465 22.4817 0.926773 22.5231 0.892803 22.5231C0.859203 22.5231 0.831511 22.5644 0.831511 22.6154C0.831511 22.6663 0.801603 22.7077 0.765049 22.7077C0.678649 22.7077 0.154342 23.2316 0.154342 23.3184C0.154342 23.3546 0.112988 23.3845 0.0620342 23.3845C-0.0022119 23.3845 -0.0302734 23.4495 -0.0302734 23.6001V23.8154H4.21145L4.49059 23.544C4.64603 23.3926 4.76973 23.2157 4.76973 23.1441C4.76973 23.0706 4.8096 23.0152 4.86203 23.0152C4.88652 23.0152 4.90999 23.0055 4.92731 22.9882C4.94462 22.9709 4.95434 22.9474 4.95434 22.9229C4.95434 22.8724 4.99606 22.8306 5.04665 22.8306C5.0976 22.8306 5.13896 22.8011 5.13896 22.7649C5.13896 22.6796 5.29551 22.5231 5.3808 22.5231C5.41699 22.5231 5.4469 22.4806 5.4469 22.4289C5.4487 22.4009 5.45826 22.374 5.47449 22.3511C5.49073 22.3282 5.513 22.3103 5.53883 22.2993C5.58942 22.2797 5.61674 22.2413 5.59976 22.214C5.58277 22.1863 5.61047 22.1221 5.66142 22.0708C5.71274 22.0198 5.75446 21.9482 5.75446 21.912C5.75446 21.8758 5.79582 21.8463 5.84677 21.8463C5.89736 21.8463 5.93908 21.8045 5.93908 21.754C5.93908 21.703 5.9664 21.6616 6 21.6616C6.08566 21.6616 6.30831 21.4623 6.30831 21.3855C6.30831 21.3504 6.37773 21.2695 6.46228 21.206C6.54683 21.1425 6.61588 21.0513 6.61588 21.0037C6.61588 20.956 6.6853 20.853 6.76985 20.7748C6.8544 20.6961 6.92382 20.6005 6.92382 20.5621C6.92382 20.5237 6.9493 20.4923 6.98068 20.4923C7.08517 20.4923 7.416 20.1149 7.416 19.9953C7.416 19.9303 7.45736 19.8768 7.50831 19.8768C7.53279 19.8768 7.55627 19.8671 7.57358 19.8497C7.59089 19.8324 7.60062 19.809 7.60062 19.7845C7.60062 19.76 7.61034 19.7365 7.62766 19.7192C7.64497 19.7019 7.66844 19.6922 7.69293 19.6922C7.71741 19.6922 7.74089 19.6824 7.7582 19.6651C7.77551 19.6478 7.78523 19.6243 7.78523 19.5999C7.78523 19.5493 7.81293 19.5076 7.8469 19.5076C7.8805 19.5076 7.90819 19.4662 7.90819 19.4152C7.90819 19.3647 7.92923 19.3296 7.95434 19.3373C8.0485 19.3665 8.27742 19.1066 8.27742 18.9711C8.27742 18.8939 8.30733 18.8308 8.34351 18.8308C8.4288 18.8308 8.58536 18.6742 8.58536 18.5889C8.58536 18.5527 8.62671 18.5232 8.67766 18.5232C8.72825 18.5232 8.76997 18.4815 8.76997 18.4309C8.76997 18.4064 8.7797 18.3829 8.79701 18.3656C8.81432 18.3483 8.8378 18.3386 8.86228 18.3386C8.91286 18.3386 8.95459 18.2968 8.95459 18.2463C8.95459 18.1953 8.98228 18.154 9.01588 18.154C9.04985 18.154 9.07754 18.0845 9.07754 18C9.07754 17.9154 9.10745 17.846 9.14363 17.846C9.23003 17.846 9.56973 17.5063 9.56973 17.4199C9.56973 17.3837 9.61145 17.3538 9.66203 17.3538C9.68651 17.3538 9.70999 17.3441 9.7273 17.3268C9.74461 17.3095 9.75434 17.286 9.75434 17.2615C9.75434 17.237 9.76407 17.2136 9.78138 17.1963C9.79869 17.1789 9.82217 17.1692 9.84665 17.1692C9.90425 17.1692 9.93896 17.1112 9.93896 17.0152C9.93896 16.9196 9.97403 16.8616 10.0313 16.8616C10.0822 16.8616 10.1236 16.8328 10.1236 16.7978C10.1236 16.7184 10.4762 16.3691 10.5567 16.3691C10.5892 16.3691 10.6161 16.3277 10.6161 16.2768C10.6161 16.2262 10.6438 16.1845 10.6774 16.1845C10.7114 16.1845 10.7391 16.1154 10.7391 16.0309C10.7391 15.9349 10.7738 15.8769 10.8314 15.8769C10.882 15.8769 10.9237 15.8352 10.9237 15.7846C10.9237 15.7336 10.9632 15.6923 11.0112 15.6923C11.0891 15.6923 11.2158 15.3485 11.1585 15.2913C11.0876 15.2204 7.4773 15.2363 7.47766 15.3076Z" fill="#565656"/>
<path id="Vector_3" d="M21.0887 7.74609C20.8405 8.01415 20.7697 8.11126 20.7697 8.18215C20.7697 8.21723 20.7279 8.24603 20.6773 8.24603C20.6529 8.24603 20.6294 8.25575 20.6121 8.27307C20.5948 8.29038 20.585 8.31386 20.585 8.33834C20.585 8.38929 20.5592 8.43064 20.5282 8.43064C20.4543 8.43064 20.0925 8.79249 20.0925 8.86634C20.0925 8.89735 20.0511 8.9232 20.0002 8.9232C19.9496 8.9232 19.9079 8.95791 19.9079 9.00074C19.9079 9.04357 19.8388 9.13034 19.7543 9.19385C19.6697 9.25772 19.6003 9.33526 19.6003 9.36701C19.6003 9.44049 19.4415 9.6 19.3681 9.6C19.2684 9.6 19.1081 9.82117 19.1081 9.95852C19.1081 10.0364 19.0693 10.0922 19.0158 10.0922C18.9649 10.0922 18.9235 10.1199 18.9235 10.1538C18.9235 10.1878 18.8818 10.2155 18.8312 10.2155C18.7802 10.2155 18.7389 10.2436 18.7389 10.2779C18.7389 10.3119 18.5934 10.4847 18.4158 10.6615C18.2378 10.8384 18.0994 11.0042 18.1079 11.03C18.1164 11.0559 18.082 11.0769 18.0311 11.0769C18.0066 11.0769 17.9831 11.0866 17.9658 11.104C17.9485 11.1213 17.9388 11.1447 17.9388 11.1692C17.9388 11.2198 17.8993 11.2615 17.8505 11.2615C17.8021 11.2615 17.7453 11.3154 17.7242 11.3815C17.7105 11.4175 17.6894 11.4502 17.6621 11.4774C17.6349 11.5047 17.6022 11.5259 17.5662 11.5396C17.4909 11.5636 17.4466 11.633 17.4466 11.7271C17.4466 11.8194 17.4108 11.877 17.3543 11.877C17.3298 11.877 17.3063 11.8868 17.289 11.9041C17.2717 11.9214 17.262 11.9449 17.262 11.9694C17.262 12.0199 17.2202 12.0617 17.1697 12.0617C17.1452 12.0617 17.1217 12.0714 17.1044 12.0887C17.0871 12.106 17.0773 12.1295 17.0773 12.154C17.0773 12.2046 17.0356 12.2463 16.985 12.2463C16.9341 12.2463 16.8994 12.2806 16.9079 12.3231C16.9164 12.3655 16.8887 12.3932 16.8466 12.3847C16.8041 12.3762 16.7694 12.411 16.7694 12.4615C16.7694 12.486 16.7597 12.5095 16.7424 12.5268C16.7251 12.5441 16.7016 12.5538 16.6771 12.5538C16.6265 12.5538 16.5848 12.5852 16.5848 12.6236C16.5848 12.662 16.5157 12.7577 16.4312 12.8363C16.3466 12.9146 16.2772 12.9936 16.2772 13.0117C16.2772 13.0298 16.1665 13.1487 16.0313 13.2761C15.8958 13.4034 15.785 13.5563 15.785 13.6154C15.785 13.6745 15.7433 13.7232 15.6927 13.7232C15.6682 13.7232 15.6448 13.7329 15.6275 13.7502C15.6101 13.7675 15.6004 13.791 15.6004 13.8155C15.6004 13.8661 15.5705 13.9078 15.534 13.9078C15.4479 13.9078 15.1079 14.2475 15.1079 14.3339C15.1079 14.3701 15.0665 14.4 15.0156 14.4C14.965 14.4 14.9233 14.4314 14.9233 14.4698C14.9233 14.5082 14.8575 14.6009 14.777 14.6754C14.2527 15.1614 14.338 15.1905 16.309 15.2001C18.4018 15.2105 18.2463 15.2171 18.2463 15.1182C18.2463 15.0731 18.3157 14.9993 18.4003 14.9538C18.4849 14.9084 18.5543 14.8346 18.5543 14.7895C18.5543 14.7445 18.5956 14.7076 18.6466 14.7076C18.6711 14.7076 18.6945 14.6978 18.7118 14.6805C18.7292 14.6632 18.7389 14.6397 18.7389 14.6153C18.7389 14.5647 18.7684 14.523 18.8046 14.523C18.874 14.523 19.0465 14.3723 19.0465 14.3121C19.0465 14.2508 19.2898 14.0308 19.3577 14.0308C19.3935 14.0308 19.409 14.0079 19.3917 13.9802C19.3566 13.9237 19.5678 13.7232 19.6627 13.7232C19.6959 13.7232 19.7236 13.6885 19.7236 13.646C19.724 13.6039 19.8761 13.4215 20.0622 13.2406C20.2483 13.0601 20.4004 12.8854 20.4004 12.8533C20.4004 12.8208 20.4695 12.73 20.554 12.6517C20.6389 12.573 20.708 12.4774 20.708 12.439C20.708 12.4006 20.7379 12.3692 20.7741 12.3692C20.8605 12.3692 21.2002 12.0292 21.2002 11.9431C21.2002 11.9066 21.2419 11.877 21.2925 11.877C21.317 11.877 21.3404 11.8673 21.3578 11.85C21.3751 11.8327 21.3848 11.8092 21.3848 11.7847C21.3848 11.7338 21.4147 11.6924 21.4513 11.6924C21.5373 11.6924 21.8773 11.3524 21.8773 11.2663C21.8773 11.2298 21.9187 11.1999 21.9697 11.1999C22.0202 11.1999 22.062 11.1703 22.062 11.1342C22.062 11.0489 22.2185 10.8923 22.3034 10.8923C22.34 10.8923 22.3695 10.8506 22.3695 10.8C22.3695 10.749 22.4109 10.7077 22.4618 10.7077C22.5128 10.7077 22.5541 10.6796 22.5541 10.6449C22.5541 10.6106 22.6513 10.4884 22.7694 10.3732C22.8879 10.2583 22.985 10.1343 22.985 10.0974C22.985 10.0608 23.0245 10.0309 23.0729 10.0309C23.1217 10.0309 23.1793 9.97403 23.2014 9.90461C23.2483 9.75618 23.5677 9.41538 23.6596 9.41538C23.6947 9.41538 23.7235 9.37366 23.7235 9.32308C23.7235 9.29859 23.7332 9.27512 23.7505 9.2578C23.7678 9.24049 23.7913 9.23077 23.8158 9.23077C23.8664 9.23077 23.9081 9.20123 23.9081 9.16468C23.9081 9.07975 24.0647 8.9232 24.1496 8.9232C24.1861 8.9232 24.2157 8.89514 24.2157 8.86117C24.2157 8.82683 24.4058 8.61231 24.6381 8.38412C24.9844 8.04443 25.0594 7.93588 25.0535 7.78449L25.0465 7.59988L23.1505 7.58363L21.2541 7.56738L21.0887 7.74609ZM8.47722 15.1846C8.90885 15.195 9.61482 15.195 10.0465 15.1846C10.4781 15.1739 10.1247 15.165 9.26184 15.165C8.39857 15.165 8.04559 15.1739 8.47722 15.1846Z" fill="#565656"/>
<path id="Vector_4" d="M33.2004 12.123V12.8614H34.6773V22.3385H33.2004V23.8154H37.8158V22.3385H36.5235V21.8463C36.5235 21.559 36.5493 21.3538 36.5851 21.3538C36.6191 21.3538 36.6468 21.3124 36.6468 21.2614C36.6468 21.237 36.6565 21.2135 36.6738 21.1962C36.6911 21.1789 36.7146 21.1691 36.7391 21.1691C36.7963 21.1691 36.8314 21.1112 36.8314 21.0155C36.8314 20.9195 36.8661 20.8616 36.9237 20.8616C36.9743 20.8616 37.016 20.8202 37.016 20.7693C37.016 20.7183 37.0574 20.677 37.1083 20.677C37.1589 20.677 37.2006 20.6474 37.2006 20.6109C37.2006 20.5259 37.3572 20.3694 37.4421 20.3694C37.4787 20.3694 37.5082 20.3277 37.5082 20.2771C37.5082 20.2526 37.5179 20.2291 37.5352 20.2118C37.5525 20.1945 37.576 20.1848 37.6005 20.1848C37.6511 20.1848 37.6928 20.156 37.6928 20.1205C37.6928 20.0854 37.7456 19.9998 37.8102 19.9304L37.9276 19.8041L38.0565 19.933C38.1274 20.0038 38.185 20.0891 38.185 20.1231C38.185 20.1571 38.2267 20.1848 38.2773 20.1848C38.3349 20.1848 38.3696 20.2427 38.3696 20.3384C38.3696 20.4233 38.3973 20.4923 38.4313 20.4923C38.4652 20.4923 38.4929 20.5625 38.4929 20.6482C38.4929 20.7338 38.5343 20.8198 38.5852 20.8394C38.6358 20.8586 38.6775 20.941 38.6775 21.0218C38.6775 21.1119 38.7134 21.1691 38.7699 21.1691C38.8215 21.1691 38.8622 21.2242 38.8622 21.2954C38.8622 21.3645 38.9312 21.4856 39.0158 21.5638C39.1007 21.6421 39.1697 21.7666 39.1697 21.8397C39.1697 21.9131 39.2111 21.9892 39.262 22.0084C39.3126 22.028 39.3543 22.1103 39.3543 22.1912C39.3543 22.2813 39.3902 22.3385 39.4467 22.3385C39.5043 22.3385 39.539 22.3965 39.539 22.4925C39.539 22.577 39.5667 22.6461 39.6006 22.6461C39.6342 22.6461 39.6619 22.7162 39.6619 22.8019C39.6619 22.8875 39.7036 22.9736 39.7542 22.9931C39.8052 23.0127 39.8465 23.0818 39.8465 23.1471C39.8465 23.2121 39.8883 23.2815 39.9388 23.3007C39.9898 23.3203 40.0311 23.3749 40.0311 23.4218C40.0311 23.4691 40.0588 23.5078 40.0928 23.5078C40.1268 23.5078 40.1545 23.5769 40.1545 23.6614V23.8154H42.8004V22.3385H42.1542C41.7647 22.3385 41.5081 22.3141 41.5081 22.2768C41.5081 22.2432 41.4667 22.2155 41.4158 22.2155C41.3545 22.2155 41.3235 22.1539 41.3235 22.0309C41.3235 21.9076 41.2928 21.8463 41.2311 21.8463C41.1739 21.8463 41.1388 21.788 41.1388 21.6923C41.1388 21.6078 41.1111 21.5384 41.0775 21.5384C41.0436 21.5384 41.0159 21.4822 41.0159 21.4136C41.0159 21.3449 40.9742 21.2725 40.9236 21.253C40.8726 21.2338 40.8313 21.1791 40.8313 21.1318C40.8313 21.0846 40.7895 21.0462 40.739 21.0462C40.6773 21.0462 40.6467 20.9845 40.6467 20.8616C40.6467 20.76 40.619 20.677 40.585 20.677C40.5514 20.677 40.5237 20.6079 40.5237 20.523C40.5237 20.4274 40.4886 20.3694 40.4314 20.3694C40.3734 20.3694 40.3391 20.311 40.3391 20.2136C40.3391 20.1279 40.2974 20.0419 40.2468 20.0223C40.1958 20.0027 40.1545 19.9208 40.1545 19.8395C40.1545 19.7587 40.1297 19.6922 40.0995 19.6922C40.0692 19.6922 40.0271 19.6232 40.006 19.5386C39.9846 19.4541 39.9403 19.3846 39.9071 19.3846C39.8738 19.3846 39.8465 19.3433 39.8465 19.2923C39.8465 19.2414 39.8052 19.2 39.7542 19.2C39.697 19.2 39.6619 19.1421 39.6619 19.0461C39.6619 18.9504 39.6272 18.8925 39.5696 18.8925C39.5083 18.8925 39.4773 18.8308 39.4773 18.7078C39.4773 18.6063 39.4496 18.5232 39.416 18.5232C39.382 18.5232 39.3543 18.4402 39.3543 18.3386C39.3543 18.2371 39.382 18.154 39.416 18.154C39.4496 18.154 39.4773 18.0846 39.4773 18C39.4773 17.9044 39.5124 17.8461 39.5696 17.8461C39.6206 17.8461 39.6619 17.8184 39.6619 17.7848C39.6619 17.7508 39.7036 17.7231 39.7542 17.7231C39.7787 17.7231 39.8022 17.7134 39.8195 17.6961C39.8368 17.6788 39.8465 17.6553 39.8465 17.6308C39.8465 17.6063 39.8563 17.5828 39.8736 17.5655C39.8909 17.5482 39.9144 17.5385 39.9388 17.5385C39.9633 17.5385 39.9868 17.5288 40.0041 17.5115C40.0214 17.4941 40.0311 17.4707 40.0311 17.4462C40.0311 17.3952 40.0588 17.3539 40.0928 17.3539C40.1268 17.3539 40.1545 17.3122 40.1545 17.2616C40.1545 17.2106 40.184 17.1693 40.2206 17.1693C40.3066 17.1693 40.6467 16.8292 40.6467 16.7432C40.6467 16.7066 40.688 16.6771 40.739 16.6771C40.7966 16.6771 40.8313 16.6187 40.8313 16.5231C40.8313 16.4275 40.866 16.3691 40.9236 16.3691C40.9742 16.3691 41.0159 16.3396 41.0159 16.3034C41.0159 16.1147 41.1972 16.0616 41.8422 16.0616H42.4928V14.5215L40.3542 14.5378L38.216 14.554V16.0309L38.6314 16.049C38.9733 16.0642 39.2606 16.1845 38.9545 16.1845C38.93 16.1845 38.9065 16.1942 38.8892 16.2116C38.8719 16.2289 38.8622 16.2523 38.8622 16.2768C38.8622 16.3013 38.8524 16.3248 38.8351 16.3421C38.8178 16.3594 38.7943 16.3691 38.7699 16.3691C38.7454 16.3691 38.7219 16.3789 38.7046 16.3962C38.6873 16.4135 38.6775 16.437 38.6775 16.4614C38.6775 16.4859 38.6678 16.5094 38.6505 16.5267C38.6332 16.544 38.6097 16.5538 38.5852 16.5538C38.5343 16.5538 38.4929 16.5837 38.4929 16.6198C38.4929 16.7051 38.3364 16.8617 38.2511 16.8617C38.2149 16.8617 38.185 16.9001 38.185 16.9474C38.185 16.9946 38.1436 17.0489 38.0927 17.0685C38.0421 17.088 38.0004 17.16 38.0004 17.2287C38.0004 17.2978 37.9727 17.3539 37.9391 17.3539C37.9051 17.3539 37.8774 17.3952 37.8774 17.4462C37.8774 17.4968 37.8357 17.5385 37.7851 17.5385C37.7606 17.5385 37.7372 17.5482 37.7198 17.5655C37.7025 17.5828 37.6928 17.6063 37.6928 17.6308C37.6928 17.6814 37.6633 17.7231 37.6267 17.7231C37.5418 17.7231 37.3852 17.8797 37.3852 17.965C37.3852 18.0011 37.3435 18.0307 37.2929 18.0307C37.242 18.0307 37.2006 18.0694 37.2006 18.1167C37.2006 18.1636 37.1589 18.2182 37.1083 18.2378C37.0574 18.257 37.016 18.3294 37.016 18.3981C37.016 18.4682 36.9754 18.5232 36.9237 18.5232C36.8992 18.5232 36.8757 18.533 36.8584 18.5503C36.8411 18.5676 36.8314 18.5911 36.8314 18.6155C36.8314 18.6661 36.8037 18.7078 36.7697 18.7078C36.7358 18.7078 36.7081 18.7492 36.7081 18.8002C36.7081 18.8246 36.6983 18.8481 36.681 18.8654C36.6637 18.8827 36.6402 18.8925 36.6158 18.8925C36.5349 18.8925 36.5235 18.4342 36.5235 15.1385V11.3845H33.2004V12.123ZM72.7697 12.123V12.8614H74.4313L74.4243 14.2309C74.4202 14.9838 74.4043 15.5517 74.3888 15.4922C74.3733 15.4331 74.3242 15.3848 74.2795 15.3848C74.2348 15.3848 74.1824 15.343 74.1628 15.2925C74.1433 15.2415 74.0779 15.2002 74.017 15.2002C73.9564 15.2002 73.8545 15.1307 73.791 15.0462C73.7249 14.9583 73.6134 14.8922 73.5303 14.8922C73.4421 14.8922 73.3852 14.856 73.3852 14.7999C73.3852 14.7334 73.3166 14.7076 73.139 14.7076C72.9614 14.7076 72.8927 14.6821 72.8927 14.6153C72.8927 14.5411 72.7971 14.523 72.4005 14.523C72.1132 14.523 71.9083 14.4975 71.9083 14.4617C71.9083 14.4251 71.6838 14.4 71.3582 14.4C71.0554 14.4 70.7906 14.4277 70.7696 14.4617C70.7489 14.4953 70.5414 14.523 70.3088 14.523C70.0153 14.523 69.858 14.5514 69.7937 14.6153C69.7332 14.6703 69.6557 14.7029 69.574 14.7076C69.5017 14.7076 69.4467 14.7478 69.4467 14.7999C69.4467 14.8244 69.4369 14.8479 69.4196 14.8652C69.4023 14.8825 69.3788 14.8922 69.3543 14.8922C69.3299 14.8922 69.3064 14.9019 69.2891 14.9193C69.2718 14.9366 69.262 14.96 69.262 14.9845C69.262 15.009 69.2523 15.0325 69.235 15.0498C69.2177 15.0671 69.1942 15.0768 69.1697 15.0768C69.1188 15.0768 69.0774 15.1045 69.0774 15.1385C69.0774 15.1725 69.0357 15.2002 68.9851 15.2002C68.9606 15.2002 68.9372 15.2099 68.9198 15.2272C68.9025 15.2445 68.8928 15.268 68.8928 15.2925C68.8928 15.343 68.8651 15.3848 68.8311 15.3848C68.7975 15.3848 68.7699 15.4678 68.7699 15.5694C68.7699 15.6923 68.7388 15.754 68.6775 15.754C68.5963 15.754 68.5852 16.1779 68.5852 19.2C68.5852 22.2222 68.5963 22.6461 68.6775 22.6461C68.7355 22.6461 68.7699 22.7048 68.7699 22.8048C68.7699 22.9636 69.0652 23.3232 69.1959 23.3232C69.2321 23.3232 69.262 23.3646 69.262 23.4155C69.262 23.4661 69.3004 23.5078 69.3477 23.5078C69.395 23.5078 69.4496 23.5492 69.4688 23.6002C69.491 23.6581 69.5851 23.6925 69.7217 23.6925C69.841 23.6925 69.9388 23.7202 69.9388 23.7538C69.9388 23.7899 70.1441 23.8154 70.4314 23.8154C70.8279 23.8154 70.9236 23.8335 70.9236 23.9077C70.9236 23.9816 71.0163 24 71.387 24C71.7422 24 71.8588 23.9786 71.8858 23.9077C71.9131 23.8365 72.032 23.8154 72.4071 23.8154C72.69 23.8154 72.8927 23.7896 72.8927 23.7538C72.8927 23.7202 72.9905 23.6925 73.1102 23.6925C73.2464 23.6925 73.3406 23.6581 73.3627 23.6002C73.3823 23.5492 73.4606 23.5078 73.537 23.5078C73.6131 23.5078 73.7275 23.4384 73.791 23.3539C73.8545 23.2693 73.9406 23.1999 73.9823 23.1999C74.0236 23.1999 74.1418 23.1179 74.2444 23.0175L74.4313 22.8351V23.8154H77.5697V22.3385H76.2158V11.3845H72.7697V12.123ZM106.801 12.123V12.8614H108.462V14.1231C108.462 15.2035 108.449 15.3848 108.37 15.3848C108.345 15.3848 108.322 15.375 108.305 15.3577C108.287 15.3404 108.278 15.3169 108.278 15.2925C108.278 15.268 108.268 15.2445 108.251 15.2272C108.233 15.2099 108.21 15.2002 108.185 15.2002C108.134 15.2002 108.093 15.1725 108.093 15.1385C108.093 15.1045 108.024 15.0768 107.939 15.0768C107.843 15.0768 107.785 15.0421 107.785 14.9845C107.785 14.9284 107.728 14.8922 107.638 14.8922C107.557 14.8922 107.474 14.8509 107.455 14.7999C107.436 14.7493 107.361 14.7076 107.29 14.7076C107.208 14.703 107.13 14.6705 107.069 14.6153C107.001 14.5481 106.837 14.523 106.458 14.523C106.153 14.523 105.939 14.4979 105.939 14.4617C105.939 14.4255 105.734 14.4 105.447 14.4C105.159 14.4 104.954 14.4255 104.954 14.4617C104.954 14.4971 104.759 14.523 104.491 14.523C104.136 14.523 104.019 14.5448 103.992 14.6153C103.973 14.6662 103.89 14.7076 103.809 14.7076C103.719 14.7076 103.662 14.7438 103.662 14.7999C103.662 14.8616 103.6 14.8922 103.478 14.8922C103.376 14.8922 103.293 14.9221 103.293 14.9583C103.293 15.0436 103.136 15.2002 103.051 15.2002C103.015 15.2002 102.985 15.2832 102.985 15.3848C102.985 15.5077 102.954 15.5694 102.893 15.5694C102.827 15.5694 102.8 15.637 102.8 15.809C102.8 15.9648 102.768 16.0608 102.708 16.0837C102.628 16.1147 102.616 16.5183 102.616 19.2C102.616 21.8818 102.628 22.2853 102.708 22.3163C102.768 22.3392 102.8 22.4352 102.8 22.591C102.8 22.7631 102.827 22.8307 102.893 22.8307C102.949 22.8307 102.985 22.8879 102.985 22.9762C102.985 23.0592 103.051 23.1707 103.139 23.2368C103.224 23.3003 103.293 23.3871 103.293 23.4299C103.293 23.4754 103.37 23.5078 103.478 23.5078C103.6 23.5078 103.662 23.5385 103.662 23.6002C103.662 23.6574 103.72 23.6925 103.816 23.6925C103.901 23.6925 103.97 23.7202 103.97 23.7538C103.97 23.7899 104.175 23.8154 104.462 23.8154C104.858 23.8154 104.954 23.8335 104.954 23.9077C104.954 23.9819 105.05 24 105.447 24C105.843 24 105.939 23.9819 105.939 23.9077C105.939 23.832 106.045 23.8154 106.524 23.8154C106.872 23.8154 107.108 23.7907 107.108 23.7538C107.108 23.7202 107.178 23.6925 107.264 23.6925C107.35 23.6925 107.436 23.6507 107.455 23.6002C107.474 23.5492 107.557 23.5078 107.638 23.5078C107.728 23.5078 107.785 23.4717 107.785 23.4155C107.785 23.362 107.841 23.3232 107.916 23.3232C107.989 23.3232 108.112 23.2538 108.19 23.1693C108.412 22.9304 108.462 22.9758 108.462 23.4155V23.8154H111.601V22.3385H110.247V11.3845H106.801V12.123ZM47.662 12.5539V13.5386H49.6311V11.5691H47.662V12.5539ZM60.0929 14.4617C60.0929 14.4964 59.9183 14.523 59.6927 14.523C59.3781 14.523 59.2928 14.5429 59.2928 14.6153C59.2928 14.6821 59.2245 14.7076 59.0465 14.7076C58.8689 14.7076 58.8006 14.7334 58.8006 14.7999C58.8006 14.852 58.7456 14.8922 58.6743 14.8922C58.6053 14.8922 58.4842 14.9616 58.4059 15.0462C58.3276 15.1307 58.232 15.2002 58.1936 15.2002C58.1548 15.2002 58.1234 15.2415 58.1234 15.2925C58.1234 15.634 57.9425 15.3371 57.9263 14.9694L57.9082 14.554L56.2622 14.5374L54.6158 14.5211V16.0616H55.9697V22.3385H54.6158V23.8154H59.2969L59.2795 23.0925L59.2622 22.3691L58.6005 22.3518L57.9388 22.3344V17.1017L58.0928 16.9592C58.1774 16.8809 58.2468 16.7853 58.2468 16.7469C58.2468 16.7085 58.3299 16.6771 58.4314 16.6771C58.5329 16.6771 58.616 16.6494 58.616 16.6154C58.616 16.5814 58.685 16.5538 58.7696 16.5538C58.8656 16.5538 58.9236 16.519 58.9236 16.4614C58.9236 16.395 58.9919 16.3691 59.1699 16.3691C59.3475 16.3691 59.4158 16.3437 59.4158 16.2768C59.4158 16.1989 59.5594 16.1845 60.3388 16.1845C61.1183 16.1845 61.2619 16.1989 61.2619 16.2768C61.2619 16.3278 61.2896 16.3691 61.3236 16.3691C61.6263 16.3691 61.6311 16.4208 61.6311 19.477V22.3385H60.2775V23.8154H64.7696V22.3385H63.416V19.0442C63.416 16.1727 63.4042 15.7455 63.3237 15.7145C63.2727 15.6953 63.2314 15.613 63.2314 15.5321C63.2314 15.4509 63.2037 15.3848 63.1697 15.3848C63.1358 15.3848 63.1081 15.3283 63.1081 15.2596C63.1081 15.1909 63.0667 15.1186 63.0158 15.0994C62.9652 15.0798 62.9235 15.0251 62.9235 14.9782C62.9235 14.9277 62.8603 14.8922 62.7699 14.8922C62.6739 14.8922 62.6159 14.8575 62.6159 14.7999C62.6159 14.7394 62.555 14.7076 62.4379 14.7076C62.3364 14.7076 62.2444 14.6681 62.2245 14.6153C62.1994 14.5503 62.0979 14.523 61.8793 14.523C61.7091 14.523 61.5699 14.4953 61.5699 14.4617C61.5699 14.424 61.2826 14.4 60.8314 14.4C60.3798 14.4 60.0929 14.424 60.0929 14.4617ZM14.7226 14.6463C14.6646 14.7139 14.6384 14.7693 14.6643 14.7693C14.6905 14.7693 14.7591 14.7139 14.8171 14.6463C14.8751 14.5784 14.9009 14.523 14.8751 14.523C14.8492 14.523 14.7806 14.5784 14.7226 14.6463ZM46.3347 14.6038C46.3177 14.6485 46.3118 14.9878 46.3214 15.3578L46.3391 16.0309L47.0927 16.0479L47.8467 16.0653V22.3385H46.3081V23.8154H50.9851V22.3385H49.6311V14.523H47.9984C46.7065 14.523 46.3594 14.54 46.3347 14.6038ZM81.2004 15.2925V16.0616H82.5543V22.3385H81.2004V23.8154H86.185V22.3385H84.3388V19.7539C84.3388 17.4975 84.3507 17.1693 84.4311 17.1693C84.4821 17.1693 84.5235 17.1416 84.5235 17.1076C84.5235 17.074 84.5799 17.0463 84.6486 17.0463C84.7173 17.0463 84.7897 17.0046 84.8089 16.954C84.8284 16.903 84.9115 16.8617 84.9935 16.8617C85.0758 16.8617 85.1589 16.82 85.1781 16.7694C85.1977 16.7184 85.28 16.6771 85.3609 16.6771C85.4421 16.6771 85.5082 16.6494 85.5082 16.6154C85.5082 16.5814 85.5894 16.5538 85.6884 16.5538C85.7877 16.5538 85.9092 16.5131 85.959 16.4633C86.0273 16.3954 86.2444 16.3688 86.8404 16.3558L87.6313 16.3385V14.554L86.8466 14.5366C86.1758 14.5219 86.062 14.533 86.062 14.6134C86.062 14.6825 85.9956 14.7076 85.8139 14.7076C85.6503 14.7076 85.554 14.739 85.5303 14.7999C85.5111 14.8509 85.4288 14.8922 85.3479 14.8922C85.2579 14.8922 85.2006 14.9284 85.2006 14.9845C85.2006 15.0421 85.1423 15.0768 85.0466 15.0768C84.9621 15.0768 84.8927 15.1045 84.8927 15.1385C84.8927 15.1725 84.8513 15.2002 84.8004 15.2002C84.7759 15.2002 84.7524 15.2099 84.7351 15.2272C84.7178 15.2445 84.7081 15.268 84.7081 15.2925C84.7081 15.3169 84.6983 15.3404 84.681 15.3577C84.6637 15.375 84.6402 15.3848 84.6158 15.3848C84.5652 15.3848 84.5235 15.4143 84.5235 15.4505C84.5235 15.4867 84.4821 15.5579 84.4311 15.6089C84.3492 15.6909 84.3388 15.6358 84.3388 15.1123V14.523H81.2004V15.2925ZM92.6691 14.6153C92.6487 14.6685 92.5568 14.7076 92.4534 14.7076C92.3504 14.7076 92.2585 14.7471 92.2382 14.7999C92.2186 14.8509 92.1643 14.8922 92.117 14.8922C92.0698 14.8922 92.0314 14.9339 92.0314 14.9845C92.0314 15.009 92.0217 15.0325 92.0043 15.0498C91.987 15.0671 91.9636 15.0768 91.9391 15.0768C91.8881 15.0768 91.8468 15.1045 91.8468 15.1385C91.8468 15.1725 91.805 15.2002 91.7545 15.2002C91.6928 15.2002 91.6622 15.2614 91.6622 15.3848C91.6622 15.4863 91.6345 15.5694 91.6005 15.5694C91.5665 15.5694 91.5388 15.6384 91.5388 15.723C91.5388 15.819 91.5041 15.877 91.4465 15.877C91.3657 15.877 91.3542 16.2838 91.3542 19.1712C91.3542 22.0427 91.366 22.4699 91.4465 22.501C91.4975 22.5202 91.5388 22.6025 91.5388 22.6834C91.5388 22.7646 91.5665 22.8307 91.6005 22.8307C91.6345 22.8307 91.6622 22.8938 91.6622 22.971C91.6622 23.1083 91.8501 23.3232 91.9705 23.3232C92.0041 23.3232 92.0314 23.3646 92.0314 23.4155C92.0314 23.4728 92.0894 23.5078 92.185 23.5078C92.281 23.5078 92.339 23.5426 92.339 23.6002C92.339 23.657 92.3966 23.6925 92.4892 23.6925C92.5719 23.6925 92.6565 23.7202 92.6775 23.7538C92.7015 23.7933 93.55 23.8154 95.0196 23.8154C96.5146 23.8154 97.3236 23.7936 97.3236 23.7538C97.3236 23.7202 97.4214 23.6925 97.541 23.6925C97.6773 23.6925 97.7715 23.6581 97.7936 23.6002C97.8132 23.5492 97.8951 23.5078 97.9764 23.5078C98.0661 23.5078 98.1237 23.4717 98.1237 23.4155C98.1237 23.3911 98.1334 23.3676 98.1507 23.3503C98.168 23.333 98.1915 23.3232 98.216 23.3232C98.2732 23.3232 98.3083 23.2649 98.3083 23.1693C98.3083 23.0736 98.343 23.0153 98.4006 23.0153C98.4619 23.0153 98.4929 22.954 98.4929 22.8307C98.4929 22.7077 98.5236 22.6461 98.5852 22.6461C98.6561 22.6461 98.6775 22.5674 98.6775 22.3078C98.6775 22.1214 98.7052 21.9693 98.7388 21.9693C98.7761 21.9693 98.8005 21.713 98.8005 21.3231V20.677H96.8314V21.3538C96.8314 21.9146 96.8155 22.0309 96.7391 22.0309C96.7146 22.0309 96.6911 22.0406 96.6738 22.058C96.6565 22.0753 96.6468 22.0987 96.6468 22.1232C96.6468 22.2026 96.4311 22.2155 95.0775 22.2155C93.7236 22.2155 93.5083 22.2026 93.5083 22.1232C93.5083 22.0987 93.4986 22.0753 93.4813 22.058C93.464 22.0406 93.4405 22.0309 93.416 22.0309C93.3915 22.0309 93.368 22.0212 93.3507 22.0039C93.3334 21.9866 93.3237 21.9631 93.3237 21.9386C93.3237 21.9141 93.314 21.8907 93.2967 21.8733C93.2794 21.856 93.2559 21.8463 93.2314 21.8463C93.1527 21.8463 93.1391 21.6853 93.1391 20.7693V19.6922H98.8005V18.0654C98.8005 17.0467 98.7776 16.4238 98.7388 16.4002C98.7052 16.3791 98.6775 16.2244 98.6775 16.056C98.6775 15.8408 98.6502 15.7396 98.5852 15.7145C98.5343 15.6953 98.4929 15.613 98.4929 15.5321C98.4929 15.442 98.4567 15.3848 98.4006 15.3848C98.343 15.3848 98.3083 15.3264 98.3083 15.2308C98.3083 15.1352 98.2732 15.0768 98.216 15.0768C98.1915 15.0768 98.168 15.0671 98.1507 15.0498C98.1334 15.0325 98.1237 15.009 98.1237 14.9845C98.1237 14.9273 98.0654 14.8922 97.9697 14.8922C97.8741 14.8922 97.8158 14.8575 97.8158 14.7999C97.8158 14.7419 97.7574 14.7076 97.6577 14.7076C97.5706 14.7076 97.458 14.6662 97.407 14.6153C97.3284 14.5366 96.9765 14.523 95.0096 14.523C93.0172 14.523 92.6997 14.5355 92.6691 14.6153ZM72.7697 16.2768C72.7697 16.3437 72.838 16.3691 73.016 16.3691C73.1936 16.3691 73.2619 16.395 73.2619 16.4614C73.2619 16.519 73.3203 16.5538 73.4159 16.5538C73.5004 16.5538 73.5699 16.5814 73.5699 16.6154C73.5699 16.6494 73.6359 16.6771 73.7172 16.6771C73.798 16.6771 73.8804 16.7184 73.8996 16.7694C73.9191 16.82 74.0052 16.8617 74.0908 16.8617C74.1883 16.8617 74.2467 16.896 74.2467 16.954C74.2467 17.0046 74.288 17.0463 74.339 17.0463C74.4191 17.0463 74.4313 17.3266 74.4313 19.2C74.4313 21.0735 74.4191 21.3538 74.339 21.3538C74.3145 21.3538 74.291 21.3635 74.2737 21.3808C74.2564 21.3981 74.2467 21.4216 74.2467 21.4461C74.2467 21.5029 74.1891 21.5384 74.0964 21.5384C74.0137 21.5384 73.9291 21.5661 73.9081 21.6C73.8874 21.634 73.8154 21.6617 73.7489 21.6617C73.6821 21.6617 73.6116 21.703 73.592 21.754C73.5724 21.8046 73.4905 21.8463 73.4092 21.8463C73.3195 21.8463 73.2619 21.8821 73.2619 21.9386C73.2619 22.0095 73.1833 22.0309 72.9237 22.0309C72.6638 22.0309 72.5851 22.0523 72.5851 22.1232C72.5851 22.2011 72.4415 22.2155 71.662 22.2155C70.8826 22.2155 70.739 22.2011 70.739 22.1232C70.739 22.0987 70.7292 22.0753 70.7119 22.058C70.6946 22.0406 70.6711 22.0309 70.6467 22.0309C70.6222 22.0309 70.5987 22.0212 70.5814 22.0039C70.5641 21.9866 70.5543 21.9631 70.5543 21.9386C70.5543 21.8877 70.5266 21.8463 70.4927 21.8463C70.4528 21.8463 70.4314 20.9232 70.4314 19.2C70.4314 17.4768 70.4528 16.5538 70.4927 16.5538C70.5266 16.5538 70.5543 16.5124 70.5543 16.4614C70.5543 16.437 70.5641 16.4135 70.5814 16.3962C70.5987 16.3789 70.6222 16.3691 70.6467 16.3691C70.6711 16.3691 70.6946 16.3594 70.7119 16.3421C70.7292 16.3248 70.739 16.3013 70.739 16.2768C70.739 16.1986 70.8929 16.1845 71.7543 16.1845C72.6158 16.1845 72.7697 16.1986 72.7697 16.2768ZM96.6468 16.2768C96.6468 16.3278 96.6881 16.3691 96.7391 16.3691C96.817 16.3691 96.8314 16.5128 96.8314 17.2922V18.2153H93.1391V17.3845C93.1391 16.687 93.1538 16.5538 93.2314 16.5538C93.282 16.5538 93.3237 16.5261 93.3237 16.4925C93.3237 16.4585 93.3721 16.3776 93.4311 16.313C93.5788 16.1513 96.6468 16.1173 96.6468 16.2768ZM106.801 16.2768C106.801 16.3437 106.869 16.3691 107.047 16.3691C107.182 16.3691 107.293 16.3965 107.293 16.4301C107.293 16.4637 107.404 16.5087 107.539 16.5301C107.674 16.5519 107.785 16.5936 107.785 16.6232C107.785 16.6527 107.827 16.6771 107.877 16.6771C107.902 16.6771 107.925 16.6868 107.943 16.7041C107.96 16.7214 107.97 16.7449 107.97 16.7694C107.97 16.8207 108.024 16.8617 108.093 16.8617C108.16 16.8617 108.271 16.9171 108.339 16.9846C108.505 17.1508 108.535 21.3538 108.37 21.3538C108.345 21.3538 108.322 21.3635 108.305 21.3808C108.287 21.3981 108.278 21.4216 108.278 21.4461C108.278 21.4996 108.222 21.5384 108.146 21.5384C108.074 21.5384 107.95 21.6078 107.872 21.6923C107.779 21.7924 107.663 21.8463 107.54 21.8463C107.428 21.8463 107.336 21.884 107.315 21.9386C107.292 21.9988 107.196 22.0309 107.04 22.0309C106.868 22.0309 106.801 22.0568 106.801 22.1232C106.801 22.2011 106.657 22.2155 105.878 22.2155C105.098 22.2155 104.954 22.2011 104.954 22.1232C104.954 22.0656 104.896 22.0309 104.8 22.0309C104.677 22.0309 104.647 22.0003 104.647 21.8751C104.647 21.7894 104.605 21.7034 104.554 21.6838C104.474 21.6532 104.462 21.3154 104.462 19.1627C104.462 16.9942 104.474 16.6771 104.554 16.6771C104.612 16.6771 104.647 16.6187 104.647 16.5231C104.647 16.4002 104.678 16.3691 104.8 16.3691C104.896 16.3691 104.954 16.3344 104.954 16.2768C104.954 16.1989 105.098 16.1845 105.878 16.1845C106.657 16.1845 106.801 16.1989 106.801 16.2768Z" fill="#565656"/>
</g>
<defs>
<clipPath id="clip0">
<rect width="111.508" height="24" fill="white" transform="translate(0.03125)"/>
</clipPath>
</defs>
</svg>
