<svg width="48" height="24" viewBox="0 0 48 24" fill-opacity="0.4" 
stroke-opacity="0.4"  xmlns="http://www.w3.org/2000/svg">
<path id="Vector" fill-rule="evenodd" clip-rule="evenodd" d="M24.783 8.37931V16.7586H25.3002V13.5517H31.4037V11.5345H26.6968V9.36207H30.7313V7.34483H26.6968V5.22414H31.4037V3.2069H25.3002V0H24.783V8.37931ZM0.472656 8.37931V13.5517H2.54162V7.27117L2.84204 7.76069C3.74824 9.23752 4.90355 11.0783 5.63224 12.2069C5.82869 12.5116 6.02297 12.8177 6.21507 13.1251L6.48073 13.5517H8.38645V3.2069H6.26576V9.43655L5.88114 8.81752C5.67839 8.49117 5.47687 8.16407 5.27659 7.83621C4.893 7.20559 3.61148 5.18855 2.72121 3.81476L2.32748 3.2069H0.472656V8.37931ZM9.47266 8.37931V13.5517H16.3002V11.5345H11.5933V9.36207H15.5761V7.34483H11.5933V5.22517L13.934 5.21172L16.2744 5.19828L16.2884 4.20269L16.3025 3.2069H9.47266V8.37931ZM17.0761 4.21552V5.22414H19.4037V13.5517H21.5244V5.22414H23.852V3.2069H17.0761V4.21552ZM32.3864 8.37931V13.5517H34.5071L34.508 10.4354C34.5088 7.37876 34.5107 7.32186 34.6048 7.47414C36.256 10.1443 36.3214 10.2494 36.6009 10.681C36.7484 10.9086 37.065 11.4037 37.3044 11.7813C37.544 12.1589 37.892 12.7059 38.0778 12.9968L38.4158 13.5259H40.3261V3.23276L39.2788 3.21869L38.2313 3.20483V6.31965C38.2313 8.22248 38.2127 9.41545 38.1835 9.38545C38.1574 9.35835 37.9799 9.08007 37.7893 8.76724C37.0205 7.50538 36.6404 6.89979 35.3867 4.93965C35.1308 4.53952 34.876 4.13869 34.6224 3.73717L34.2882 3.2069H32.3864V8.37931ZM41.1278 4.2151V5.22414H43.5071V13.5517H45.5761V5.22414H47.9577L47.9436 4.22855L47.9296 3.23276L44.5288 3.21952L41.1278 3.20607V4.2151ZM41.0761 20.0431C41.0761 20.0913 41.1249 20.1207 41.2054 20.1207C41.3289 20.1207 41.3347 20.1346 41.3347 20.431C41.3347 20.6725 41.3519 20.7414 41.4123 20.7414C41.4727 20.7414 41.4899 20.6725 41.4899 20.431C41.4899 20.1552 41.5015 20.1207 41.5933 20.1207C41.6509 20.1207 41.6968 20.0861 41.6968 20.0431C41.6968 19.9827 41.6279 19.9655 41.3864 19.9655C41.145 19.9655 41.0761 19.9827 41.0761 20.0431ZM41.7485 20.3777C41.7485 20.7228 41.7611 20.785 41.8261 20.76C41.8714 20.7426 41.9047 20.6625 41.9064 20.5678L41.9091 20.4052L41.9904 20.5217C42.0986 20.6766 42.1942 20.6683 42.2879 20.4958L42.3651 20.3534L42.3671 20.5717C42.3688 20.7439 42.3856 20.7836 42.4468 20.76C42.5062 20.7372 42.5244 20.6402 42.5244 20.3479C42.5244 19.8823 42.4356 19.8387 42.2465 20.2111L42.1216 20.4565L42.0024 20.2111C41.8218 19.8391 41.7485 19.8871 41.7485 20.3777ZM6.50721 20.569C6.48817 20.5879 6.47266 21.3792 6.47266 22.3277V24.0517H7.26735C8.50169 24.0517 8.78741 23.9626 9.00693 23.509C9.22231 23.064 9.11555 22.4619 8.79031 22.2877C8.6879 22.2331 8.68831 22.23 8.81452 22.0945C9.315 21.5576 9.04541 20.7213 8.32748 20.5825C8.05893 20.5308 6.55666 20.5196 6.50721 20.569ZM9.42093 22.2931V24.0517H11.852V23.3793H10.1451V22.6034H11.5933V21.931H10.1451V21.2069H11.852V20.5345H9.42093V22.2931ZM12.0589 20.8707V21.2069H12.9365L12.9502 22.6165L12.964 24.0259H13.6882L13.702 22.6165L13.7157 21.2069H14.5933V20.5345H12.0589V20.8707ZM14.8002 20.8707V21.2069H15.6796V24.0517H16.4037V21.2069H17.3347V20.5345H14.8002V20.8707ZM17.5538 22.2803L17.5675 24.0259H19.9468L19.9621 23.7027L19.9776 23.3793H18.2658V22.6034H19.714V21.931H18.2658V21.2069H19.9727V20.5345H17.5402L17.5538 22.2803ZM20.2313 22.2931V24.0517H20.9554V22.7586L21.2529 22.7588L21.5502 22.759L21.8078 23.3857C22.0987 24.0939 22.064 24.0621 22.5243 24.0414L22.8676 24.0259L22.5574 23.3326L22.2473 22.639L22.4356 22.4532C23.0362 21.8601 22.8189 20.8012 22.053 20.5885C21.9471 20.5591 21.494 20.5349 21.046 20.5347L20.2313 20.5345V22.2931ZM24.9518 20.6615C24.3282 20.9518 24.2546 21.1361 24.2755 22.3539C24.2912 23.2757 24.2953 23.3075 24.4269 23.5097C24.8304 24.1291 25.9654 24.2359 26.5871 23.7128L26.7485 23.5771V22.0862H25.5071V22.7069H26.0244V22.9728C26.0244 23.4294 25.5235 23.5612 25.1618 23.1995L24.9822 23.0199L24.999 22.2641L25.0158 21.5085L25.1846 21.3577C25.3942 21.1707 25.7695 21.1521 26.1206 21.3114C26.2445 21.3677 26.3527 21.4138 26.3608 21.4138C26.3691 21.4138 26.4527 21.2938 26.5468 21.1471L26.7181 20.8802L26.5958 20.7979C26.1566 20.502 25.4248 20.4414 24.9518 20.6615ZM28.0009 20.6746C27.9704 20.754 27.7913 21.2611 27.6024 21.8017C27.4135 22.3423 27.1673 23.0406 27.0551 23.3534C26.7876 24.0995 26.7775 24.0592 27.2271 24.041L27.602 24.0259L27.7089 23.6897L27.8157 23.3534H28.9948L29.0945 23.7027L29.1945 24.0517H29.5749C30.0183 24.0517 30.01 24.0695 29.8203 23.5306C29.7458 23.3193 29.5149 22.6577 29.307 22.0603C29.1572 21.6291 29.0066 21.198 28.8553 20.7672L28.7815 20.5603L28.4188 20.5452C28.0638 20.5306 28.0547 20.5332 28.0009 20.6746ZM30.2262 22.2803L30.2399 24.0259H30.9123L30.9382 23.1519L30.964 22.2782L31.2837 22.8933L31.6031 23.5086H32.1913L32.5087 22.8892L32.8261 22.2697L32.8402 23.1608L32.8544 24.0517H33.5761V20.5345H32.925L32.4375 21.5212C32.1696 22.0639 31.9362 22.5163 31.9193 22.5269C31.9023 22.5374 31.6623 22.0934 31.3863 21.5402L30.8842 20.5345H30.2126L30.2262 22.2803ZM34.1451 22.2931V24.0517H34.8692V20.5345H34.1451V22.2931ZM35.3864 22.2672V24H36.1106V21.877L36.8364 22.9643L37.5622 24.0517H38.2327L38.2191 22.3061L38.2054 20.5603L37.8574 20.545L37.5092 20.5297L37.4953 21.6045L37.4813 22.6792L36.7693 21.6068L36.0576 20.5345H35.3864V22.2672ZM39.4468 20.5984C38.7047 20.8651 38.4272 21.6972 38.6356 23.0315C38.788 24.0079 40.1136 24.4146 40.9354 23.7372L41.1278 23.5788V22.0862H39.8864V22.7069H40.4037V22.9728C40.4037 23.4267 39.9028 23.5612 39.5451 23.2034L39.3692 23.0276V21.5586L39.5451 21.3828C39.7598 21.168 40.1246 21.1413 40.502 21.3124C40.6271 21.3691 40.7335 21.4094 40.7387 21.4018L40.9164 21.133L41.0852 20.8779L40.966 20.7879C40.666 20.5618 39.8366 20.4583 39.4468 20.5984ZM8.14872 21.2659C8.29748 21.3335 8.36866 21.5642 8.28755 21.7157C8.21121 21.8584 7.96272 21.931 7.55121 21.931H7.19679V21.2069H7.6081C7.83445 21.2069 8.07755 21.2334 8.14872 21.2659ZM21.9198 21.3296C22.3189 21.6728 22.0166 22.0862 21.3663 22.0862H20.9554V21.2069H21.3663C21.724 21.2069 21.7956 21.2228 21.9198 21.3296ZM28.6075 22.0932C28.6946 22.3945 28.7658 22.6558 28.7658 22.6738C28.7658 22.692 28.6 22.7069 28.3977 22.7069C28.0712 22.7069 28.0327 22.6966 28.0567 22.6165C28.3491 21.6424 28.3991 21.4953 28.4277 21.5241C28.4395 21.5359 28.5206 21.792 28.6075 22.0932ZM8.14831 22.6014C8.4121 22.7017 8.40879 23.2306 8.14397 23.3313C8.07445 23.3578 7.833 23.3793 7.60728 23.3793H7.19679V22.5517H7.60728C7.833 22.5517 8.07652 22.5741 8.14831 22.6014Z" fill="#565656"/>
</svg>
