<svg width="172" height="24" viewBox="0 0 172 24" fill-opacity="0.4" 
stroke-opacity="0.4"  xmlns="http://www.w3.org/2000/svg">
<path id="Vector" d="M105.375 7.24935H102.095C101.934 7.24935 101.804 7.37953 101.804 7.54026V16.6217C101.804 18.7817 100.522 20.2093 98.3805 20.2093C96.2387 20.2093 94.9943 18.7817 94.9943 16.6217V7.54026C94.9943 7.37953 94.8641 7.24935 94.7034 7.24935H91.4038C91.243 7.24935 91.1128 7.37953 91.1128 7.54026V16.6217C91.1128 20.7039 93.5107 23.7424 98.3797 23.7424C102.938 23.7424 105.666 21.1068 105.666 16.6217V7.54026C105.666 7.37953 105.535 7.24935 105.375 7.24935ZM116.851 6.81007C114.471 6.81007 112.641 7.85371 111.78 9.4828V7.52207C111.78 7.36135 111.65 7.23116 111.49 7.23116H108.282C108.121 7.23116 107.991 7.36135 107.991 7.52207V23.0493C107.991 23.2101 108.121 23.3403 108.282 23.3403H111.562C111.723 23.3403 111.853 23.2101 111.853 23.0493V14.645C111.853 12.1192 113.482 10.3432 115.77 10.3432C117.912 10.3432 119.303 11.8806 119.303 14.5897V23.0675C119.303 23.2283 119.434 23.3584 119.594 23.3584H122.894C123.055 23.3584 123.185 23.2283 123.185 23.0675V13.5461C123.167 7.90826 118.81 6.81007 116.851 6.81007ZM134.37 6.81007C131.991 6.81007 130.16 7.85371 129.3 9.4828V7.52207C129.3 7.36135 129.17 7.23116 129.009 7.23116H125.801C125.64 7.23116 125.51 7.36135 125.51 7.52207V23.0493C125.51 23.2101 125.64 23.3403 125.801 23.3403H129.082C129.242 23.3403 129.372 23.2101 129.372 23.0493V14.645C129.372 12.1192 131.002 10.3432 133.29 10.3432C135.431 10.3432 136.823 11.8806 136.823 14.5897V23.0675C136.823 23.2283 136.953 23.3584 137.114 23.3584H140.413C140.574 23.3584 140.704 23.2283 140.704 23.0675V13.5461C140.685 7.90826 136.329 6.81007 134.37 6.81007ZM8.08594 1.28135H0.376847C0.216119 1.28135 0.0859375 1.41153 0.0859375 1.57226V23.0668C0.0859375 23.2275 0.216119 23.3577 0.376847 23.3577H3.89612C4.05685 23.3577 4.18703 23.2275 4.18703 23.0668V5.08935H8.01248C10.1907 5.08935 12.0394 6.88353 11.9848 9.06171C11.9848 10.6093 10.6634 12.6021 8.75939 12.8035C5.79357 13.133 5.2263 15.597 5.2263 16.6588H8.01175C12.2219 16.6588 15.6816 13.3272 15.755 9.11698C15.8292 4.77807 12.3696 1.28135 8.08594 1.28135ZM34.2299 7.21298H30.9121C30.7521 7.21298 30.6212 7.34389 30.6212 7.50389V23.0312C30.6212 23.1919 30.7514 23.3221 30.9121 23.3221H34.2299C34.3907 23.3221 34.5208 23.1919 34.5208 23.0312V7.50389C34.5208 7.34316 34.3907 7.21298 34.2299 7.21298ZM32.851 0.279892C31.3594 0.185346 30.1303 1.41516 30.2241 2.9068C30.3019 4.13662 31.2998 5.13444 32.5296 5.21226C34.0212 5.30607 35.2503 4.07698 35.1565 2.58535C35.0787 1.35553 34.0808 0.35771 32.851 0.279892ZM84.8154 15.7155C87.1688 14.437 88.7856 11.9803 88.8357 9.11626C88.9092 4.77807 85.4496 1.28135 81.1659 1.28135H73.4568C73.2961 1.28135 73.1659 1.41153 73.1659 1.57226V23.0675C73.1659 23.2283 73.2961 23.3584 73.4568 23.3584H76.9761C77.1368 23.3584 77.267 23.2283 77.267 23.0675V5.08935H81.0925C83.2707 5.08935 85.1194 6.88353 85.0648 9.06171C85.0648 10.6093 83.7434 12.6021 81.8401 12.8035C78.875 13.133 78.307 15.597 78.307 16.6588H80.2896C80.6001 16.6733 80.8888 16.8203 81.0452 17.0981L84.6227 23.0581C84.6742 23.1441 84.7472 23.2154 84.8345 23.2648C84.9219 23.3143 85.0205 23.3403 85.1208 23.3403H89.2234C89.4539 23.3403 89.5928 23.085 89.467 22.8915L84.8154 15.7155ZM62.7725 6.8828C58.8183 6.8828 54.4067 9.37226 54.4067 15.3032C54.4067 21.2341 59.0016 23.7235 62.9187 23.7235C66.051 23.7235 68.8583 22.1664 70.2983 19.7308C70.3805 19.5919 70.3325 19.413 70.1936 19.3315L67.547 17.7933C67.4081 17.7126 67.227 17.7599 67.1492 17.9003C66.3208 19.3853 64.5128 20.1723 62.8823 20.1723C60.411 20.1723 58.1958 18.1584 58.1958 15.3032C58.1958 11.6603 60.5208 10.1228 62.7718 10.1228C65.1878 10.1228 66.6161 11.6057 66.9456 13.8384H62.4394C60.8103 13.8384 59.4925 15.1563 59.4925 16.7853L70.3928 16.8028C70.5419 16.8028 70.6663 16.6901 70.6823 16.5424C71.4765 9.34462 66.5696 6.8828 62.7725 6.8828ZM151.25 6.8828C147.295 6.8828 142.884 9.37226 142.884 15.3032C142.884 21.2341 147.479 23.7235 151.396 23.7235C154.528 23.7235 157.335 22.1664 158.775 19.7308C158.858 19.5919 158.81 19.413 158.671 19.3315L156.024 17.7933C155.885 17.7126 155.705 17.7599 155.626 17.9003C154.798 19.3853 152.99 20.1723 151.359 20.1723C148.888 20.1723 146.674 18.1584 146.674 15.3032C146.674 11.6603 148.999 10.1228 151.25 10.1228C153.666 10.1228 155.094 11.6057 155.423 13.8384H150.917C149.288 13.8384 147.97 15.1563 147.97 16.7853L158.871 16.8028C159.02 16.8028 159.144 16.6901 159.16 16.5424C159.954 9.34462 155.046 6.8828 151.25 6.8828ZM27.9696 7.07044C24.8256 6.20426 22.763 7.65953 21.7987 9.44571V7.52135C21.7987 7.36062 21.6685 7.23044 21.5078 7.23044H18.3732C18.2125 7.23044 18.0823 7.36062 18.0823 7.52135V23.0486C18.0823 23.2093 18.2125 23.3395 18.3732 23.3395H21.6358C21.7965 23.3395 21.9267 23.2093 21.9267 23.0486V15.4683C21.9267 12.1184 23.6474 9.83698 27.5456 10.7141C27.715 10.7526 27.8787 10.6304 27.8954 10.4566C28.0016 9.31698 28.1318 7.92644 28.1834 7.37807C28.1965 7.23771 28.1056 7.10826 27.9696 7.07044ZM171.458 7.07044C168.314 6.20426 166.251 7.65953 165.287 9.44571V7.52135C165.287 7.36062 165.156 7.23044 164.996 7.23044H161.861C161.7 7.23044 161.57 7.36062 161.57 7.52135V23.0486C161.57 23.2093 161.7 23.3395 161.861 23.3395H165.124C165.284 23.3395 165.415 23.2093 165.415 23.0486V15.4683C165.415 12.1184 167.135 9.83698 171.034 10.7141C171.203 10.7526 171.367 10.6304 171.383 10.4566C171.49 9.31698 171.62 7.92644 171.671 7.37807C171.677 7.30991 171.659 7.24184 171.62 7.18566C171.581 7.12948 171.524 7.08872 171.458 7.07044ZM45.5398 10.7126C47.1332 10.7126 48.6154 11.6246 49.3907 12.9817C49.4721 13.1243 49.6525 13.1752 49.7936 13.0915L52.4503 11.5163C52.6605 11.3919 52.7267 11.1192 52.5987 10.9112C51.1179 8.50535 48.4714 6.90244 45.4445 6.90244C40.6852 6.90244 36.8408 10.893 37.0605 15.7075C37.2619 20.0828 40.8678 23.597 45.243 23.7068C48.2605 23.7759 50.9332 22.2683 52.467 19.9301C52.6052 19.7192 52.5354 19.4348 52.3158 19.3104L49.7274 17.8544C49.531 17.7439 49.2852 17.8021 49.1558 17.9861C48.3448 19.1366 47.0278 19.885 45.5398 19.885C42.6408 19.885 40.5812 17.4828 40.8859 14.7737C41.0874 12.869 42.8852 10.7126 45.5398 10.7126Z" fill="#565656"/>
</svg>
