<svg width="70" height="24" viewBox="0 0 70 24" fill-opacity="0.4" 
stroke-opacity="0.4"  xmlns="http://www.w3.org/2000/svg">
<path id="Vector" d="M39.0481 0.0353495C37.1938 0.24756 35.3091 1.24293 34.1116 2.63745C31.3832 5.82567 31.4994 10.4236 34.3845 13.445C35.4102 14.5212 36.926 15.3549 38.4064 15.6631C40.2607 16.0522 42.206 15.8198 43.8228 15.0164C44.3533 14.7537 44.995 14.3191 45.0354 14.2029C45.0607 14.1221 44.8738 13.733 44.3079 12.6922C43.4338 11.0753 43.4742 11.1158 42.9841 11.4492C41.6653 12.3486 39.9879 12.6114 38.7449 12.1111C37.5121 11.6109 36.6178 10.5246 36.2388 9.06946C36.062 8.38735 36.0519 7.46777 36.2085 6.80588C36.6632 4.94145 37.9213 3.72377 39.6392 3.48124C40.6245 3.34482 41.726 3.63788 42.7314 4.31493C43.0043 4.49682 43.262 4.6484 43.3024 4.6484C43.3428 4.6484 43.4135 4.60798 43.454 4.55746C43.5752 4.42103 45.0102 1.73303 45.0102 1.64714C45.0102 1.4703 44.1108 0.904402 43.2973 0.575981C42.2262 0.141455 41.4026 -0.00507157 40.1091 0.0100863C39.6241 0.015139 39.1441 0.0252442 39.0481 0.0353495ZM0.259022 0.232402C0.168074 0.272823 0.163022 15.36 0.253969 15.4509C0.299443 15.4964 0.789548 15.5116 2.1386 15.5116C3.84639 15.5116 3.97271 15.5065 4.0485 15.4206C4.12428 15.3347 4.13439 15.0972 4.13439 13.0257V10.7217L5.61481 10.6964C7.26702 10.6711 7.72681 10.6156 8.52007 10.3326C9.33355 10.0396 10.1571 9.45346 10.6068 8.84714C11.8093 7.22019 12.0468 4.82019 11.1828 2.99619C10.91 2.41514 10.723 2.13724 10.3037 1.69767C9.54071 0.904402 8.80302 0.545665 7.45902 0.32335C7.01439 0.24756 6.46871 0.232402 3.62913 0.222297C1.81018 0.212192 0.289338 0.217244 0.259022 0.232402ZM6.58997 3.78945C7.05481 3.91072 7.46407 4.1583 7.64092 4.43619C7.93397 4.88082 7.9946 5.5983 7.79755 6.1743C7.62576 6.6644 7.14576 7.0383 6.51923 7.16967C6.37271 7.19998 5.77649 7.22524 5.19544 7.22524H4.13439V3.6884H5.16007C6.02913 3.6884 6.25144 3.70356 6.58997 3.78945ZM13.0422 0.308192C12.9512 0.399139 12.9462 15.4105 13.0371 15.5015C13.1281 15.5924 16.7912 15.5873 16.8519 15.4964C16.8721 15.4661 16.9024 13.8088 16.9175 11.8181L16.9428 8.2004L18.8375 11.7069C19.8784 13.637 20.7929 15.2892 20.8637 15.3751L21.0001 15.5368H24.7744L24.8148 15.4105C24.8552 15.2943 24.6784 14.9507 23.3647 12.6215C22.5411 11.1562 21.8691 9.94861 21.8691 9.93346C21.8691 9.9183 21.8994 9.90314 21.9348 9.90314C22.0763 9.90314 22.8039 9.42314 23.1373 9.10482C23.9862 8.30651 24.4157 7.37682 24.5521 6.05809C24.6733 4.80503 24.3449 3.33977 23.7335 2.4404C22.9251 1.24798 21.8792 0.666928 20.0148 0.373876C19.5601 0.303139 18.9487 0.282928 16.286 0.267771C13.7546 0.24756 13.0877 0.257665 13.0422 0.308192ZM19.1003 3.83493C19.6005 3.9663 19.9289 4.13303 20.2018 4.40588C20.6009 4.80503 20.8535 5.53261 20.7828 6.11367C20.6919 6.90188 20.318 7.54356 19.7874 7.81135C19.358 8.02861 18.979 8.08924 17.918 8.11956L16.9175 8.14988V3.73893H17.8169C18.5445 3.73893 18.7971 3.75914 19.1003 3.83493ZM26.6186 0.348613C26.5832 0.414297 26.5681 2.85977 26.5681 7.90735C26.5681 12.9549 26.5832 15.4004 26.6186 15.4661C26.6691 15.557 26.7449 15.5621 28.5285 15.5621C29.9079 15.5621 30.403 15.5469 30.4485 15.5015C30.5344 15.4156 30.5344 0.399139 30.4485 0.313244C30.403 0.267771 29.9079 0.252613 28.5285 0.252613C26.7449 0.252613 26.6691 0.257665 26.6186 0.348613ZM46.6573 0.333455C46.5866 0.404192 46.5765 1.16209 46.5765 7.92756C46.5765 13.7027 46.5916 15.456 46.6371 15.5015C46.723 15.5873 55.1205 15.5873 55.2064 15.5015C55.2519 15.456 55.267 15.0113 55.267 13.8189C55.267 12.6265 55.2519 12.1819 55.2064 12.1364C55.1609 12.0909 54.5647 12.0758 52.8316 12.0758H50.5175V9.49893H52.579C54.115 9.49893 54.6557 9.48377 54.7011 9.4383C54.787 9.3524 54.787 6.20967 54.7011 6.12377C54.6557 6.0783 54.115 6.06314 52.579 6.06314H50.5175V3.73893H52.7963C54.2666 3.73893 55.1053 3.71872 55.171 3.6884C55.262 3.63788 55.267 3.56209 55.267 2.00588C55.267 0.80335 55.2519 0.358718 55.2064 0.313244C55.1609 0.267771 54.1453 0.252613 50.942 0.252613C47.1828 0.252613 46.7281 0.262718 46.6573 0.333455ZM57.4194 0.333455C57.3487 0.404192 57.3386 1.16209 57.3386 7.90735C57.3386 14.6526 57.3487 15.4105 57.4194 15.4812C57.4851 15.552 57.7327 15.5621 59.3293 15.5621C60.6834 15.5621 61.1735 15.5469 61.219 15.5015C61.2645 15.456 61.2796 14.0716 61.2796 9.58988V3.73893H62.179C63.1542 3.73893 63.5786 3.80461 64.0333 4.01177C64.5386 4.24419 64.9327 4.70903 65.0944 5.27493C65.2106 5.67409 65.1803 6.38146 65.0236 6.77556C64.6194 7.82651 63.9575 8.12967 62.0931 8.13472C61.4919 8.13472 61.3251 8.14988 61.3453 8.2004C61.3554 8.23072 62.2093 9.81724 63.235 11.7221C64.3213 13.728 65.1803 15.264 65.2813 15.3751L65.4582 15.5621H67.2569C68.2422 15.5621 69.086 15.5469 69.1314 15.5318C69.3335 15.456 69.2123 15.2034 67.747 12.5962C66.9436 11.1663 66.2818 9.97893 66.2818 9.95872C66.2818 9.94356 66.4485 9.84251 66.6556 9.7364C67.8481 9.12503 68.6666 7.9124 68.9091 6.40672C69.0102 5.78524 68.9495 4.58777 68.7879 3.9663C68.5403 3.01135 68.1007 2.26861 67.4034 1.60672C66.595 0.848823 65.4784 0.459771 63.6796 0.303139C63.3462 0.277876 61.8203 0.252613 60.2843 0.252613C57.8186 0.252613 57.4902 0.262718 57.4194 0.333455ZM13.3251 20.5288C12.7491 20.6905 12.355 21.0846 12.1681 21.6707C11.8548 22.656 12.3348 23.6564 13.2493 23.9242C13.7748 24.0808 14.5024 23.9596 14.9369 23.6463L15.1491 23.4947V22.1305H13.7344V22.4337H14.846V22.8833C14.846 23.3078 14.8359 23.3431 14.7146 23.4391C14.3357 23.7372 13.6232 23.8029 13.1584 23.5756C12.6531 23.328 12.3954 22.8682 12.4005 22.2063C12.4055 20.9785 13.6788 20.3469 14.6893 21.0695C14.8258 21.1655 14.8359 21.1655 14.9167 21.0745C15.0329 20.9482 15.0178 20.9078 14.8308 20.7815C14.4317 20.5086 13.7799 20.3975 13.3251 20.5288ZM22.1672 20.5288C21.5912 20.6905 21.1971 21.0846 21.0102 21.6707C20.6969 22.656 21.1769 23.6564 22.0914 23.9242C22.6169 24.0808 23.3445 23.9596 23.779 23.6463L23.9912 23.4947V22.1305H22.5765V22.4337H23.6881V22.8833C23.6881 23.3078 23.678 23.3431 23.5567 23.4391C23.1778 23.7372 22.4653 23.8029 22.0005 23.5756C21.4952 23.328 21.2375 22.8682 21.2426 22.2063C21.2477 20.9785 22.5209 20.3469 23.5314 21.0695C23.6679 21.1655 23.678 21.1655 23.7588 21.0745C23.875 20.9482 23.8599 20.9078 23.6729 20.7815C23.2738 20.5086 22.622 20.3975 22.1672 20.5288ZM37.2796 20.5086C36.7744 20.6147 36.4712 20.9532 36.4712 21.3979C36.4712 21.9183 36.739 22.1558 37.5676 22.368C38.1335 22.5095 38.2902 22.5852 38.4367 22.7671C38.6439 23.0299 38.5276 23.424 38.1891 23.5958C37.795 23.7979 37.1938 23.7069 36.7441 23.3836L36.5167 23.2219L36.4106 23.333L36.3045 23.4391L36.4258 23.5402C36.6784 23.7575 37.1483 23.9495 37.4868 23.9798C38.2902 24.0556 38.846 23.6716 38.846 23.0349C38.846 22.5448 38.5175 22.2669 37.7243 22.08C37.4767 22.0244 37.2089 21.9486 37.1331 21.9031C36.6279 21.6455 36.6683 21.0442 37.2039 20.837C37.5272 20.7158 37.9062 20.7663 38.2902 20.9735C38.5883 21.1402 38.5933 21.1402 38.6641 21.0442C38.7095 20.9886 38.7348 20.9179 38.7247 20.8926C38.7196 20.8623 38.5681 20.7713 38.3862 20.6804C38.0426 20.5086 37.603 20.4379 37.2796 20.5086ZM48.0468 20.5389C47.2788 20.7562 46.814 21.4029 46.819 22.2568C46.819 22.7116 46.8999 22.9793 47.1323 23.3179C47.7083 24.1566 49.0523 24.2324 49.7596 23.4644C50.1083 23.0855 50.1891 22.848 50.1891 22.2316C50.1891 21.7516 50.174 21.6707 50.0476 21.413C49.694 20.6905 48.8401 20.3166 48.0468 20.5389ZM49.0523 20.8724C49.9618 21.2817 50.1992 22.5701 49.502 23.2926C48.83 23.9848 47.7234 23.8029 47.2889 22.9288C47.1575 22.6711 47.1323 22.565 47.1323 22.2619C47.1373 21.5545 47.4556 21.0695 48.067 20.832C48.3146 20.736 48.7946 20.7562 49.0523 20.8724ZM0.193338 22.2366V23.9596L1.1685 23.9393C2.24471 23.9191 2.40639 23.8787 2.68934 23.5452C2.85102 23.3482 2.89144 23.2067 2.86113 22.8833C2.83081 22.6055 2.66913 22.3882 2.41144 22.2821C2.2346 22.2063 2.22955 22.1659 2.39123 22.0598C2.67418 21.8728 2.78534 21.3019 2.59839 20.9937C2.37607 20.6147 2.01228 20.5137 0.920916 20.5137H0.193338V22.2366ZM2.0325 20.9179C2.28513 21.0391 2.37607 21.1806 2.37607 21.4383C2.37102 21.696 2.25481 21.8627 1.99713 21.984C1.82534 22.0598 1.66365 22.08 1.11797 22.08H0.445969V20.8168H1.13818C1.72428 20.8168 1.86071 20.832 2.0325 20.9179ZM2.19418 22.4791C2.44681 22.5953 2.56807 22.757 2.56807 22.9793C2.56807 23.232 2.44176 23.424 2.19923 23.5402C2.00723 23.6362 1.89102 23.6463 1.21397 23.6463H0.445969V22.3831H1.21902C1.86071 22.3831 2.02239 22.4033 2.19418 22.4791ZM3.62913 22.2265V23.9495H3.93228V22.5347H4.97818L5.51881 23.2421C6.02913 23.909 6.06955 23.9495 6.23123 23.9495C6.32723 23.9495 6.40807 23.9343 6.40807 23.909C6.40807 23.8888 6.1706 23.5705 5.8826 23.1966L5.35713 22.5145L5.61986 22.4286C6.48892 22.1305 6.53944 21.029 5.70071 20.645C5.50365 20.5591 5.34197 20.5389 4.55376 20.5238L3.62913 20.5036V22.2265ZM5.65523 20.9583C5.99881 21.1705 6.09481 21.6151 5.86239 21.9233C5.66534 22.1861 5.43292 22.2568 4.65481 22.272L3.93228 22.2922V20.8067L4.70534 20.8269C5.39755 20.8421 5.49355 20.8522 5.65523 20.9583ZM7.16597 22.2316V23.9495H7.46913V20.5137H7.16597V22.2316ZM8.42913 22.2316V23.9495H8.73228L8.74239 22.5095L8.75755 21.0695L9.89439 22.5095C10.7786 23.6261 11.0565 23.9495 11.1474 23.9495H11.2586V20.5137H11.006L10.9959 21.9537L10.9807 23.3937L9.84386 21.9537C8.85355 20.7057 8.68681 20.5187 8.5706 20.5137H8.42913V22.2316ZM16.0081 22.2316V23.9495H16.3112V20.5137H16.0081V22.2316ZM17.3218 22.2265V23.9495H17.5744L17.5845 22.4892L17.5997 21.024L18.7567 22.4892C19.6813 23.6564 19.939 23.9495 20.035 23.9495H20.1512V20.5137H19.8481L19.838 21.9335L19.8228 23.3482L18.7112 21.9436C17.7967 20.7916 17.5744 20.5339 17.4582 20.5238L17.3218 20.5086V22.2265ZM26.0628 20.6652V20.8168H27.2249V23.9495H27.5281V20.8168H28.6902V20.5137H26.0628V20.6652ZM29.3975 22.2265V23.9495H29.7007V22.5347H30.7567L31.2973 23.2421C31.8279 23.9394 31.843 23.9495 32.035 23.9495C32.2725 23.9495 32.3028 24.0151 31.6409 23.1612L31.1306 22.4993L31.3378 22.4438C31.8228 22.3124 32.0754 21.9991 32.0754 21.5343C32.0754 21.1452 31.9036 20.8775 31.5449 20.6905C31.2519 20.5389 31.2367 20.5389 30.3222 20.5187L29.3975 20.5036V22.2265ZM31.4085 20.933C31.8178 21.1553 31.8935 21.701 31.555 22.0092C31.3125 22.2316 31.0952 22.2821 30.3474 22.2821H29.7007V20.8067L30.4738 20.8269C31.0902 20.8421 31.2721 20.8623 31.4085 20.933ZM32.8434 21.7617C32.8586 22.949 32.8636 23.0248 32.9748 23.2522C33.1314 23.5705 33.4245 23.8231 33.7479 23.9191C34.5058 24.1465 35.2333 23.8585 35.5163 23.232C35.6274 22.9793 35.6375 22.8985 35.6527 21.7364L35.6729 20.5137H35.3698L35.3495 21.7111C35.3344 22.8581 35.3293 22.9238 35.2131 23.1562C35.0514 23.4846 34.7836 23.6615 34.3946 23.6867C33.95 23.7221 33.763 23.6665 33.5104 23.4341C33.1769 23.1259 33.1365 22.9389 33.1365 21.6151V20.5137H32.8232L32.8434 21.7617ZM39.3007 20.6652V20.8168H40.4628V23.9495H40.766V20.8168H41.9281V20.5137H39.3007V20.6652ZM43.8481 20.6652V20.8168H45.0102V23.9495H45.3133V20.8168H46.526V20.5137H43.8481V20.6652ZM52.4881 22.2316V23.9495H52.7912V22.5347L53.3117 22.5398H53.827L54.3575 23.2421C54.8729 23.9242 54.8931 23.9444 55.0801 23.9495C55.1811 23.9495 55.267 23.9394 55.267 23.9242C55.267 23.909 55.0295 23.5907 54.7365 23.2168C54.4434 22.8429 54.206 22.5246 54.206 22.5145C54.206 22.5044 54.2818 22.4791 54.3778 22.464C54.6152 22.4185 54.9588 22.1558 55.0447 21.9537C55.1407 21.7212 55.1357 21.3019 55.0346 21.0846C54.8274 20.6551 54.3879 20.5137 53.2611 20.5137H52.4881V22.2316ZM54.3879 20.9128C54.6759 21.0442 54.8123 21.2362 54.8123 21.509C54.8123 21.797 54.6961 21.989 54.4384 22.1406C54.2514 22.2467 54.1554 22.2568 53.5138 22.272L52.7912 22.2922V20.8168H53.4885C54.0544 20.8168 54.2211 20.837 54.3879 20.9128ZM55.9239 22.2316V23.9495H58.3996V23.6463H56.227V22.3831H58.1975V22.08H56.227V20.8168H58.3996V20.5137H55.9239V22.2316ZM58.9049 20.6652V20.8168H60.1175V23.9495H60.4207V20.8168H61.5828V20.5137H58.9049V20.6652ZM62.4923 21.8627C62.1487 22.6105 61.795 23.3836 61.7041 23.5806L61.5373 23.9495H61.699C61.8607 23.9495 61.8759 23.9343 62.083 23.4695L62.3053 22.9895H64.2152L64.4375 23.4695C64.6497 23.9191 64.67 23.9495 64.8165 23.9495C64.8973 23.9495 64.9681 23.9343 64.9681 23.909C64.9681 23.8888 64.6194 23.1208 64.2001 22.1962C63.1895 19.9983 63.3411 20.0286 62.4923 21.8627ZM63.6948 21.8375L64.099 22.7368H63.2704C62.8156 22.7368 62.4418 22.7267 62.4418 22.7166C62.4418 22.7015 62.5681 22.4135 62.7247 22.0699C62.8813 21.7263 63.0632 21.3271 63.1289 21.1756C63.1946 21.024 63.2603 20.9128 63.2704 20.9229C63.2805 20.933 63.4725 21.3473 63.6948 21.8375ZM65.6754 22.2316V23.9495H65.9786V20.5137H65.6754V22.2316ZM66.9386 22.2316V23.9495H69.2123V23.6463H67.2418V20.5137H66.9386V22.2316Z" fill="#565656"/>
</svg>
