<svg width="73" height="24" viewBox="0 0 73 24" fill-opacity="0.4" 
stroke-opacity="0.4" xmlns="http://www.w3.org/2000/svg">
<path id="Vector" d="M1.62544 6.68441H8.7552C9.4542 6.68441 9.98116 6.90528 10.1883 7.89807C10.419 9.00186 10.3241 9.77017 9.08147 9.8581L6.84316 10.0178C8.49068 20.4279 18.1235 23.8208 23.3679 12.6091C24.236 10.7533 24.5201 10.4154 25.471 10.6514C26.7601 10.9713 26.936 11.6341 26.3221 13.505C21.7874 27.3267 6.5471 28.7122 3.55682 10.2543L1.7382 10.3858C0.258681 10.4918 0.200439 9.24331 0.200439 8.54897C0.200439 7.17641 0.710336 6.68441 1.62544 6.68441ZM27.5482 0C29.0099 0 30.1946 1.18479 30.1946 2.64641C30.1946 4.10783 29.0099 5.29241 27.5482 5.29241C26.087 5.29241 24.902 4.10783 24.902 2.64641C24.902 1.18469 26.087 0 27.5482 0V0ZM41.5881 12.4134C41.5793 12.506 41.5671 12.5983 41.5515 12.6901C41.5359 12.7813 41.5158 12.868 41.4915 12.9502C41.4671 13.0325 41.4392 13.1024 41.4081 13.1602C41.3548 13.2579 41.2814 13.3213 41.1881 13.3502C41.0948 13.3792 40.9724 13.3936 40.8214 13.3936H38.7878V20.3545C38.7878 20.4656 38.7767 20.549 38.7545 20.6045C38.7321 20.6602 38.6945 20.7101 38.6411 20.7545C38.5078 20.8522 38.221 20.9012 37.781 20.9012C37.3232 20.9012 37.032 20.8522 36.9076 20.7545C36.8498 20.7101 36.8099 20.6602 36.7876 20.6045C36.7653 20.549 36.7543 20.4656 36.7543 20.3545V13.3936H34.4873C34.3717 13.3936 34.284 13.388 34.224 13.3769C34.164 13.3659 34.1162 13.3492 34.0806 13.3269C34.0228 13.2913 33.985 13.2459 33.9672 13.1903C33.9494 13.1348 33.9405 13.0513 33.9405 12.9402C33.9405 12.8603 33.9449 12.7726 33.9539 12.6769C33.9625 12.5831 33.9747 12.4897 33.9905 12.3968C34.006 12.3058 34.026 12.2201 34.0505 12.1402C34.0749 12.0602 34.1026 11.9913 34.1339 11.9335C34.1872 11.8357 34.2606 11.7724 34.3539 11.7434C34.4472 11.7146 34.5694 11.7001 34.7206 11.7001H41.0548C41.1703 11.7001 41.2592 11.7057 41.3214 11.7168C41.3837 11.7279 41.4324 11.7446 41.4681 11.7667C41.5215 11.8023 41.557 11.8479 41.5748 11.9034C41.5925 11.959 41.6015 12.04 41.6015 12.1468C41.6015 12.2311 41.597 12.3201 41.5881 12.4134ZM50.2498 19.1243C50.1129 19.5085 49.8866 19.8548 49.5896 20.1344C49.2896 20.4189 48.9063 20.6411 48.4395 20.8012C47.9728 20.9612 47.4127 21.0412 46.7593 21.0412C46.1059 21.0412 45.5459 20.9612 45.0791 20.8012C44.6123 20.6411 44.229 20.4189 43.929 20.1344C43.632 19.8548 43.4058 19.5085 43.2689 19.1243C43.1288 18.7353 43.0589 18.3119 43.0589 17.8541V12.1933C43.0589 12.0822 43.0698 11.9978 43.0922 11.94C43.1144 11.8823 43.1544 11.8333 43.2122 11.7933C43.3365 11.6956 43.6278 11.6466 44.0856 11.6466C44.5257 11.6466 44.8123 11.6956 44.9456 11.7933C44.999 11.8333 45.0367 11.8823 45.059 11.94C45.0813 11.9978 45.0923 12.0822 45.0923 12.1933V17.8274C45.0923 18.0498 45.1234 18.2531 45.1856 18.4375C45.2479 18.6219 45.3457 18.7799 45.479 18.9109C45.6124 19.042 45.7846 19.1432 45.9958 19.2143C46.2068 19.2854 46.4614 19.3209 46.7592 19.3209C47.0569 19.3209 47.3115 19.2853 47.5227 19.2143C47.7337 19.1432 47.906 19.042 48.0394 18.9109C48.1727 18.7798 48.2704 18.6219 48.3328 18.4375C48.395 18.2531 48.4261 18.0498 48.4261 17.8274V12.1933C48.4261 12.0822 48.437 11.9978 48.4594 11.94C48.4816 11.8823 48.5217 11.8333 48.5794 11.7933C48.7037 11.6956 48.995 11.6466 49.4528 11.6466C49.8929 11.6466 50.1795 11.6956 50.3129 11.7933C50.3662 11.8333 50.4039 11.8823 50.4262 11.94C50.4485 11.9978 50.4595 12.0822 50.4595 12.1933V17.8541C50.4599 18.3119 50.3898 18.7353 50.2498 19.1243ZM54.6407 20.6045C54.6163 20.6602 54.5774 20.7101 54.524 20.7545C54.3996 20.8522 54.1128 20.9012 53.664 20.9012C53.2061 20.9012 52.9149 20.8522 52.7906 20.7545C52.7372 20.7101 52.6982 20.6602 52.6739 20.6045C52.6494 20.549 52.6372 20.4656 52.6372 20.3545V12.1933C52.6372 12.0822 52.6494 11.9978 52.6739 11.94C52.6988 11.8815 52.7391 11.8308 52.7906 11.7933C52.9149 11.6956 53.2062 11.6466 53.664 11.6466C54.1129 11.6466 54.3996 11.6956 54.524 11.7933C54.5774 11.8333 54.6163 11.8823 54.6407 11.94C54.665 11.9978 54.6773 12.0822 54.6773 12.1933V20.3545C54.6773 20.4656 54.665 20.5489 54.6407 20.6045ZM64.1509 12.2532C64.1376 12.3044 64.1132 12.3721 64.0776 12.4566C64.0419 12.5321 64.002 12.6078 63.9576 12.6833C63.9131 12.7588 63.8486 12.7967 63.7642 12.7967C63.6966 12.7974 63.6296 12.7837 63.5676 12.7566C63.4957 12.7248 63.4234 12.6937 63.3509 12.6633C63.2477 12.6186 63.1406 12.584 63.0308 12.56C62.9197 12.5357 62.7951 12.5233 62.6574 12.5233C62.4308 12.5233 62.2484 12.56 62.1107 12.6333C61.9729 12.7067 61.865 12.8056 61.7873 12.93C61.7094 13.0544 61.6573 13.2011 61.6306 13.3701C61.6034 13.5465 61.59 13.7249 61.5906 13.9034V14.7902H63.1041C63.1752 14.7902 63.2285 14.7913 63.2642 14.7935C63.2998 14.7958 63.3285 14.808 63.3509 14.8301C63.3731 14.8525 63.3875 14.8779 63.3942 14.9068C63.4008 14.9358 63.4042 14.9879 63.4042 15.0635C63.4042 15.1792 63.3932 15.2825 63.3709 15.3736C63.3486 15.4647 63.3243 15.5347 63.2976 15.5836C63.2576 15.6503 63.2119 15.6935 63.1609 15.7136C63.1098 15.7336 63.0332 15.7436 62.9309 15.7436H61.5907V20.4176C61.5907 20.4976 61.5862 20.5542 61.5773 20.5877C61.5684 20.6211 61.5462 20.6554 61.5106 20.691C61.4839 20.7177 61.4294 20.7421 61.3473 20.7643C61.2649 20.7866 61.1462 20.7977 60.9906 20.7977C60.8528 20.7977 60.7449 20.7887 60.6672 20.771C60.5893 20.7532 60.5372 20.7309 60.5105 20.7042C60.4749 20.6776 60.4527 20.6442 60.4438 20.6042C60.4349 20.5642 60.4304 20.5066 60.4304 20.4308V15.7435H59.6637C59.5969 15.7435 59.5447 15.7424 59.5069 15.7402C59.4691 15.738 59.4392 15.7258 59.4169 15.7036C59.3955 15.6827 59.3804 15.6561 59.3736 15.6269C59.367 15.598 59.3635 15.5459 59.3635 15.4702C59.3635 15.2392 59.4058 15.0591 59.4903 14.9301C59.5259 14.8723 59.5681 14.8345 59.617 14.8167C59.6659 14.799 59.7414 14.79 59.8437 14.79H60.4304V13.8098C60.4304 13.4854 60.4714 13.1843 60.5537 12.9064C60.6359 12.6287 60.7637 12.3887 60.9371 12.1863C61.1105 11.9841 61.3305 11.8263 61.5972 11.7129C61.8639 11.5996 62.1795 11.5429 62.544 11.5429C62.7973 11.5429 63.014 11.5595 63.194 11.5928C63.374 11.6261 63.5218 11.6629 63.6374 11.7028C63.7574 11.7473 63.853 11.7884 63.9241 11.8261C63.9951 11.864 64.0484 11.8984 64.0841 11.9294C64.1197 11.9606 64.143 11.9906 64.1541 12.0194C64.1651 12.0484 64.1708 12.0761 64.1708 12.1028C64.171 12.1522 64.1643 12.2022 64.1509 12.2532ZM65.9217 20.5944C65.9127 20.6321 65.8905 20.6644 65.8549 20.6911C65.8238 20.7178 65.7682 20.7422 65.6883 20.7645C65.6083 20.7867 65.4905 20.7978 65.3349 20.7978C65.1971 20.7978 65.0892 20.7888 65.0115 20.7711C64.9337 20.7533 64.8815 20.731 64.8548 20.7043C64.821 20.6804 64.7972 20.6448 64.7881 20.6043C64.7791 20.5643 64.7747 20.5067 64.7747 20.4309V12.0898C64.7747 11.9164 64.8058 11.801 64.868 11.743C64.8947 11.7163 64.9447 11.6897 65.018 11.6631C65.0914 11.6365 65.1969 11.6097 65.3348 11.5831C65.4681 11.5564 65.5725 11.5431 65.6481 11.5431C65.6882 11.5431 65.7271 11.5442 65.7648 11.5464C65.8025 11.5487 65.8325 11.5564 65.8548 11.5698C65.8904 11.5964 65.9126 11.6298 65.9216 11.6698C65.9305 11.7098 65.9349 11.7677 65.9349 11.8432V20.4177C65.935 20.4977 65.9305 20.5567 65.9217 20.5944ZM68.9532 23.4817H68.2581C67.9559 23.4817 68.1144 23.1564 68.1144 23.1564L69.3621 20.351L66.9084 15.297C66.8821 15.2418 66.8566 15.1862 66.8318 15.1303C66.8162 15.0948 66.8084 15.0504 66.8084 14.997C66.8084 14.9703 66.8173 14.9414 66.8351 14.9103C66.8528 14.8793 66.8851 14.8503 66.9318 14.8236C66.9786 14.7969 67.0418 14.7759 67.1219 14.7603C67.2018 14.7448 67.3019 14.7369 67.4219 14.7369C67.6086 14.7369 67.7496 14.7536 67.8453 14.7869C67.9409 14.8202 68.0109 14.8859 68.0553 14.9836L69.9356 18.9974L71.5491 15.0369C71.5935 14.9126 71.6634 14.8314 71.7591 14.7935C71.8547 14.7559 72.0069 14.7368 72.2159 14.7368C72.4335 14.7368 72.5769 14.7592 72.6459 14.8036C72.7148 14.848 72.7492 14.8992 72.7492 14.9569C72.7492 15.0102 72.7402 15.0613 72.7225 15.1102C72.7048 15.1592 72.6781 15.2213 72.6426 15.2969L70.0362 21.5377C69.9562 21.7333 69.3002 23.1605 69.241 23.2759C69.142 23.4691 68.9532 23.4817 68.9532 23.4817Z" fill="#565656"/>
</svg>
