<svg width="175" height="24" viewBox="0 0 175 24" fill-opacity="0.4" 
stroke-opacity="0.4"  xmlns="http://www.w3.org/2000/svg">
<g id="svg3" clip-path="url(#clip0)">
<path id="Vector" fill-rule="evenodd" clip-rule="evenodd" d="M174.702 0.233333C174.334 1.269 173.59 1.8677 172.472 2.02951C170.795 2.27211 164.691 2.02951 163.944 2.02951C163.447 2.02951 163.165 2.31812 163.1 2.8955V9.56574C163.1 10.4643 163.487 10.9054 164.26 10.889H172.73C172.371 11.9381 171.695 12.5033 170.701 12.5847H163.944C163.48 12.5847 163.199 12.866 163.1 13.4287V20.9111C163.1 21.4189 163.382 21.7207 163.944 21.8167C171.114 21.8171 174.7 21.8171 174.702 21.8167C174.231 23.0498 173.488 23.6771 172.472 23.6983H162.523C161.466 23.6983 160.937 23.3158 160.936 22.5508V1.47965C160.936 0.72969 161.291 0.314276 161.999 0.233333H174.702ZM141.562 12.5263C145.851 12.2206 147.875 10.2309 147.634 6.55703C147.503 5.13835 146.545 1.99924 141.562 2.06177C141.558 2.06108 140.33 2.06108 137.878 2.06177V21.4913C137.868 22.4717 137.187 23.198 135.835 23.6703C135.835 23.6691 135.835 15.8945 135.835 0.346378C139.65 0.345843 141.559 0.345843 141.562 0.346378C147.762 0.346378 149.94 3.97344 149.94 6.55703C149.94 10.244 148.181 12.6488 144.662 13.7715L151.54 23.6703C149.833 23.7321 148.697 23.3407 148.133 22.496C147.568 21.6513 145.378 18.3281 141.562 12.5263ZM105.465 23.6703L115.575 0.859167C115.87 0.175473 116.179 0.175473 116.5 0.859167C116.821 1.54286 120.199 9.14658 126.635 23.6703C125.128 23.6142 124.231 23.2282 123.944 22.5124C123.658 21.7965 122.892 20.0711 121.646 17.3363C121.54 17.1192 121.398 17.0108 121.221 17.0108H110.75C110.605 16.9935 110.481 17.102 110.378 17.3363C110.274 17.5705 109.52 19.2959 108.117 22.5124C107.764 23.2843 106.88 23.6703 105.465 23.6703V23.6703ZM111.561 14.569C111.346 15.0704 111.437 15.3211 111.833 15.3211H120.264C120.566 15.3211 120.629 15.0704 120.454 14.569C118.061 9.02452 116.716 5.91476 116.421 5.23978C116.127 4.56472 115.844 4.56472 115.573 5.23978L111.561 14.5689V14.569ZM85.9693 10.3478C84.7186 7.49119 83.2618 4.16299 81.5989 0.363346C83.022 0.195957 83.9561 0.638046 84.4011 1.68946C84.6524 2.28304 85.5212 4.34643 87.0076 7.87955C88.4941 4.34643 89.3629 2.28312 89.6141 1.68946C90.0591 0.638046 90.9932 0.195957 92.4164 0.363346C90.7534 4.16299 89.2966 7.49119 88.0459 10.3478C89.0216 12.6674 90.1891 15.4434 91.5485 18.6761C91.8035 19.2711 92.0526 19.2711 92.2957 18.6761C92.5387 18.0812 94.9599 12.4189 99.5591 1.68946C100.004 0.689409 100.951 0.247397 102.399 0.363346L92.3668 23.3028C92.1077 23.7928 91.868 23.7928 91.6476 23.3028C91.5002 22.9752 89.9536 19.4474 87.0077 12.7193C84.0618 19.4474 82.5152 22.9752 82.3678 23.3028C82.1474 23.7928 81.9077 23.7928 81.6486 23.3028L71.6159 0.363269C73.0643 0.24732 74.0111 0.689333 74.4561 1.68938C79.0554 12.4188 81.4765 18.0811 81.7196 18.676C81.9626 19.2711 82.2118 19.2711 82.4668 18.676C83.8262 15.4434 84.9937 12.6673 85.9694 10.3477L85.9693 10.3478ZM51.2898 1.27741C51.4541 0.581333 51.8484 0.233333 52.4729 0.233333H56.6663C59.1195 0.253893 60.9846 0.770046 62.2617 1.78172C64.3087 3.20719 64.4704 5.35038 64.4704 5.35038C64.7747 9.8049 61.9651 10.9639 59.8789 11.5506C61.7157 11.9225 63.0852 12.6576 63.9873 13.7561C64.7682 14.6947 65.1586 15.796 65.1586 17.0601C65.2121 19.8075 63.1319 23.6297 57.3511 23.6985H52.4729C51.6842 23.6145 51.2898 23.3025 51.2898 22.7624V1.27741ZM57.0499 2.02493H53.3629V10.7926C53.8893 10.7913 55.1182 10.7913 57.0499 10.7926C62.2284 10.5381 63.4032 6.44964 61.5778 3.81514C60.751 2.62164 59.2417 2.02493 57.0499 2.02493ZM57.5832 12.5933C57.5853 12.5869 56.1785 12.5869 53.3629 12.5933V21.8417C53.9517 21.8381 55.3585 21.8381 57.5832 21.8417C62.777 21.5734 64 17.1204 62.1112 14.8144C60.4691 12.8096 58.6278 12.5933 57.5832 12.5933ZM40.5148 0.233257C40.146 1.269 39.4027 1.8677 38.2844 2.02943C36.6073 2.27211 30.5035 2.02943 29.7568 2.02943C29.2589 2.02943 28.9776 2.31812 28.9127 2.8955V9.56574C28.9127 10.4643 29.2991 10.9054 30.072 10.889H38.5419C38.1832 11.9381 37.5069 12.5033 36.5132 12.5847H29.7567C29.2927 12.5847 29.0113 12.866 28.9127 13.4287V20.9111C28.9127 21.4189 29.1939 21.7207 29.7567 21.8167C36.9261 21.8171 40.5122 21.8171 40.5148 21.8167C40.0434 23.0498 39.3 23.6771 38.2844 23.6983H28.3351C27.2784 23.6983 26.7497 23.3158 26.7489 22.5508V1.47965C26.7489 0.72969 27.1031 0.314276 27.8116 0.233333H40.5148L40.5148 0.233257ZM15.5224 0.233257C16.4907 0.235091 16.7685 0.585307 16.3559 1.28398C15.9433 1.98266 11.9899 8.50462 4.4958 20.8501C4.12128 21.6127 4.35975 21.994 5.21152 21.994H14.8523C15.7022 21.9583 16.3708 22.5264 16.8584 23.6983C14.7574 23.6872 9.89076 23.6872 2.25837 23.6983C1.34607 23.6933 1.17096 23.2174 1.73305 22.2705C2.29514 21.3235 6.18811 14.9003 13.412 3.00082C13.8093 2.30742 13.5673 1.96072 12.6861 1.96072H3.10739C1.98795 1.84966 1.27277 1.27389 0.961914 0.233333C0.960386 0.228212 5.81389 0.228212 15.5224 0.233333V0.233257Z" fill="#565656"/>
</g>
<defs>
<clipPath id="clip0">
<rect width="174.268" height="24" fill="white" transform="translate(0.732422)"/>
</clipPath>
</defs>
</svg>
